<?xml version="1.0" encoding="UTF-8"?>
<svg xmlns="http://www.w3.org/2000/svg" version="1.1" xmlns:xlink="http://www.w3.org/1999/xlink" viewBox="0 0 2464.4 1736.2">
  <defs>
    <style>
      .cls-1 {
        fill: #246289;
      }

      .cls-2 {
        fill: #a65756;
      }

      .cls-3 {
        fill: #8170a4;
      }

      .cls-4 {
        fill: #a65754;
      }

      .cls-5 {
        fill: #34658f;
      }

      .cls-6 {
        fill: #a55753;
      }

      .cls-7 {
        fill: #a9585d;
      }

      .cls-8 {
        fill: #2f6954;
      }

      .cls-9 {
        fill: #874b2f;
      }

      .cls-10 {
        fill: #436894;
      }

      .cls-11 {
        fill: #8c6fa4;
      }

      .cls-12 {
        fill: #3b6b42;
      }

      .cls-13 {
        fill: #a06ca4;
      }

      .cls-14 {
        fill: #94503c;
      }

      .cls-15 {
        fill: #506a98;
      }

      .cls-16 {
        fill: #246669;
      }

      .cls-17 {
        fill: #2b648b;
      }

      .cls-18 {
        fill: #896fa4;
      }

      .cls-19 {
        fill: #a55652;
      }

      .cls-20 {
        fill: #216473;
      }

      .cls-21 {
        fill: #8370a4;
      }

      .cls-22 {
        fill: #b75e7f;
      }

      .cls-23 {
        fill: #b55d79;
      }

      .cls-24 {
        fill: #a76ba3;
      }

      .cls-25 {
        fill: #5c6c9b;
      }

      .cls-26 {
        fill: #924f3a;
      }

      .cls-27 {
        fill: #b7618b;
      }

      .cls-28 {
        fill: #22656e;
      }

      .cls-29 {
        fill: #b25c74;
      }

      .cls-30 {
        fill: #a1554a;
      }

      .cls-31 {
        fill: #a3564d;
      }

      .cls-32 {
        fill: #7a4722;
      }

      .cls-33 {
        fill: #b65d7c;
      }

      .cls-34 {
        fill: #3d6b3f;
      }

      .cls-35 {
        fill: #6a6d9e;
      }

      .cls-36 {
        fill: #406793;
      }

      .cls-37 {
        fill: #546b99;
      }

      .cls-38 {
        fill: #b95e83;
      }

      .cls-39 {
        fill: #b35c75;
      }

      .cls-40 {
        fill: #8e6ea4;
      }

      .cls-41 {
        fill: #3b6b43;
      }

      .cls-42 {
        fill: #714319;
      }

      .cls-43 {
        fill: #606c9c;
      }

      .cls-44 {
        fill: #b5628d;
      }

      .cls-45 {
        fill: #804928;
      }

      .cls-46 {
        fill: #28685e;
      }

      .cls-47 {
        fill: #814929;
      }

      .cls-48 {
        fill: #1e6281;
      }

      .cls-49 {
        fill: #906ea4;
      }

      .cls-50 {
        fill: #a15549;
      }

      .cls-51 {
        fill: #ba5f85;
      }

      .cls-52 {
        fill: #436c37;
      }

      .cls-53 {
        fill: #936ea4;
      }

      .cls-54 {
        fill: #854b2d;
      }

      .cls-55 {
        fill: #236288;
      }

      .cls-56 {
        fill: #2f6955;
      }

      .cls-57 {
        fill: #4b6997;
      }

      .cls-58 {
        fill: #9e6ca4;
      }

      .cls-59 {
        fill: #b75e80;
      }

      .cls-60 {
        fill: #9c6ca4;
      }

      .cls-61 {
        fill: #ab5962;
      }

      .cls-62 {
        fill: #a969a0;
      }

      .cls-63 {
        fill: #786fa2;
      }

      .cls-64 {
        fill: #af5a6b;
      }

      .cls-65 {
        fill: #ac5963;
      }

      .cls-66 {
        fill: #716ea0;
      }

      .cls-67 {
        fill: #a9585c;
      }

      .cls-68 {
        fill: #a36ba4;
      }

      .cls-69 {
        fill: #36668f;
      }

      .cls-70 {
        fill: #266762;
      }

      .cls-71 {
        fill: #736ea0;
      }

      .cls-72 {
        fill: #416893;
      }

      .cls-73 {
        fill: #844a2c;
      }

      .cls-74 {
        fill: #476d31;
      }

      .cls-75 {
        fill: #1f6187;
      }

      .cls-76 {
        fill: #31658e;
      }

      .cls-77 {
        fill: #966da4;
      }

      .cls-78 {
        fill: #466995;
      }

      .cls-79 {
        fill: #5b6c9b;
      }

      .cls-80 {
        fill: #1f637c;
      }

      .cls-81 {
        fill: #876fa4;
      }

      .cls-82 {
        fill: #586b9a;
      }

      .cls-83 {
        fill: #1e6186;
      }

      .cls-84 {
        fill: #386690;
      }

      .cls-85 {
        fill: #22656f;
      }

      .cls-86 {
        fill: #9b5343;
      }

      .cls-87 {
        fill: #916ea4;
      }

      .cls-88 {
        fill: #1e6283;
      }

      .cls-89 {
        fill: #a46ba4;
      }

      .cls-90 {
        fill: #406c3b;
      }

      .cls-91 {
        fill: #7d6fa3;
      }

      .cls-92 {
        fill: #326950;
      }

      .cls-93 {
        fill: #a45650;
      }

      .cls-94 {
        fill: #2c6859;
      }

      .cls-95 {
        fill: #6f6ea0;
      }

      .cls-96 {
        fill: #216472;
      }

      .cls-97 {
        fill: #ac689c;
      }

      .cls-98 {
        fill: #904f38;
      }

      .cls-99 {
        fill: #3c6b41;
      }

      .cls-100 {
        fill: #20637a;
      }

      .cls-101 {
        fill: #a2554b;
      }

      .cls-102 {
        fill: #a65755;
      }

      .cls-103 {
        fill: #3b6691;
      }

      .cls-104 {
        fill: #ad679a;
      }

      .cls-105 {
        fill: #476d32;
      }

      .cls-106 {
        fill: #93503b;
      }

      .cls-107 {
        fill: #b45c77;
      }

      .cls-108 {
        fill: #706ea0;
      }

      .cls-109 {
        fill: #794621;
      }

      .cls-110 {
        fill: none;
      }

      .cls-111 {
        fill: #396690;
      }

      .cls-112 {
        fill: #a8585a;
      }

      .cls-113 {
        fill: #2d6858;
      }

      .cls-114 {
        fill: #866fa4;
      }

      .cls-115 {
        fill: #a05548;
      }

      .cls-116 {
        fill: #4a6997;
      }

      .cls-117 {
        fill: #8f4e37;
      }

      .cls-118 {
        fill: #466d33;
      }

      .cls-119 {
        fill: #a56ba4;
      }

      .cls-120 {
        fill: #6e6e9f;
      }

      .cls-121 {
        fill: #376a48;
      }

      .cls-122 {
        fill: #306953;
      }

      .cls-123 {
        fill: #426c39;
      }

      .cls-124 {
        fill: #2d6857;
      }

      .cls-125 {
        fill: #b35c76;
      }

      .cls-126 {
        fill: #2d648c;
      }

      .cls-127 {
        fill: #b85e82;
      }

      .cls-128 {
        fill: #a75758;
      }

      .cls-129 {
        fill: #75451d;
      }

      .cls-130 {
        fill: #446c36;
      }

      .cls-131 {
        fill: #9e5446;
      }

      .cls-132 {
        fill: #29638b;
      }

      .cls-133 {
        fill: #784620;
      }

      .cls-134 {
        fill: #366a4b;
      }

      .cls-135 {
        fill: #8d6ea4;
      }

      .cls-136 {
        fill: #396a46;
      }

      .cls-137 {
        fill: #8270a4;
      }

      .cls-138 {
        fill: #96513e;
      }

      .cls-139 {
        fill: #536b99;
      }

      .cls-140 {
        fill: #726ea0;
      }

      .cls-141 {
        fill: #476995;
      }

      .cls-142 {
        fill: #b75e7e;
      }

      .cls-143 {
        fill: #9d6ca4;
      }

      .cls-144 {
        fill: #7f70a3;
      }

      .cls-145 {
        fill: #b06596;
      }

      .cls-146 {
        fill: #6c4114;
      }

      .cls-147 {
        fill: #ad5a66;
      }

      .cls-148 {
        fill: #216288;
      }

      .cls-149 {
        fill: #20637b;
      }

      .cls-150 {
        fill: #6b4113;
      }

      .cls-151 {
        fill: #266761;
      }

      .cls-152 {
        fill: #9b6da4;
      }

      .cls-153 {
        fill: #3a6b44;
      }

      .cls-154 {
        fill: #b25c73;
      }

      .cls-155 {
        fill: #b7618a;
      }

      .cls-156 {
        fill: #256763;
      }

      .cls-157 {
        fill: #b05b6e;
      }

      .cls-158 {
        fill: #8470a4;
      }

      .cls-159 {
        fill: #2f648d;
      }

      .cls-160 {
        fill: #696d9e;
      }

      .cls-161 {
        fill: #a75757;
      }

      .cls-162 {
        fill: #386a47;
      }

      .cls-163 {
        fill: #1d6185;
      }

      .cls-164 {
        fill: #2b685b;
      }

      .cls-165 {
        fill: #b26492;
      }

      .cls-166 {
        fill: #a16ca4;
      }

      .cls-167 {
        fill: #a66ba4;
      }

      .cls-168 {
        fill: #486d30;
      }

      .cls-169 {
        fill: #8a4c32;
      }

      .cls-170 {
        fill: #8b6fa4;
      }

      .cls-171 {
        fill: #95503d;
      }

      .cls-172 {
        fill: #b4638f;
      }

      .cls-173 {
        fill: #746ea1;
      }

      .cls-174 {
        fill: #4d6a98;
      }

      .cls-175 {
        fill: #ba5f86;
      }

      .cls-176 {
        fill: #b65d7d;
      }

      .cls-177 {
        fill: #216477;
      }

      .cls-178 {
        fill: #a76aa2;
      }

      .cls-179 {
        fill: #456d34;
      }

      .cls-180 {
        fill: #2c648c;
      }

      .cls-181 {
        fill: #3e6792;
      }

      .cls-182 {
        fill: #566b9a;
      }

      .cls-183 {
        fill: #2b685a;
      }

      .cls-184 {
        fill: #b85e81;
      }

      .cls-185 {
        fill: #246666;
      }

      .cls-186 {
        fill: #206378;
      }

      .cls-187 {
        fill: #ab5961;
      }

      .cls-188 {
        fill: #b95f84;
      }

      .cls-189 {
        fill: #976da4;
      }

      .cls-190 {
        fill: #226288;
      }

      .cls-191 {
        fill: #b06594;
      }

      .cls-192 {
        fill: #8c4d34;
      }

      .cls-193 {
        fill: #556b9a;
      }

      .cls-194 {
        fill: #1f627f;
      }

      .cls-195 {
        fill: #73441b;
      }

      .cls-196 {
        fill: #226570;
      }

      .cls-197 {
        fill: #23666a;
      }

      .cls-198 {
        fill: #32658e;
      }

      .cls-199 {
        fill: #ab689d;
      }

      .cls-200 {
        fill: #416c3a;
      }

      .cls-201 {
        fill: #b05b6d;
      }

      .cls-202 {
        fill: #7d4825;
      }

      .cls-203 {
        fill: #ae6698;
      }

      .cls-204 {
        fill: #676d9e;
      }

      .cls-205 {
        fill: #894c31;
      }

      .cls-206 {
        fill: #3f6b3d;
      }

      .cls-207 {
        fill: #1d6186;
      }

      .cls-208 {
        fill: #995241;
      }

      .cls-209 {
        fill: #5a6b9b;
      }

      .cls-210 {
        fill: #ae5a69;
      }

      .cls-211 {
        fill: #6d4215;
      }

      .cls-212 {
        fill: #ac5964;
      }

      .cls-213 {
        fill: #29685d;
      }

      .cls-214 {
        fill: #666d9e;
      }

      .cls-215 {
        fill: #6f4317;
      }

      .cls-216 {
        fill: #7e4826;
      }

      .cls-217 {
        fill: #406c3c;
      }

      .cls-218 {
        fill: #1f627e;
      }

      .cls-219 {
        fill: #9a5242;
      }

      .cls-220 {
        fill: #396a45;
      }

      .cls-221 {
        fill: #9a6da4;
      }

      .cls-222 {
        fill: #656d9d;
      }

      .cls-223 {
        fill: #216475;
      }

      .cls-224 {
        fill: #8570a4;
      }

      .cls-225 {
        fill: #704318;
      }

      .cls-226 {
        fill: #33694f;
      }

      .cls-227 {
        fill: #b15b70;
      }

      .cls-228 {
        fill: #b05b6f;
      }

      .cls-229 {
        fill: #616c9c;
      }

      .cls-230 {
        fill: #985240;
      }

      .cls-231 {
        fill: #37668f;
      }

      .cls-232 {
        fill: #aa585e;
      }

      .cls-233 {
        fill: #446894;
      }

      .cls-234 {
        fill: #a9699f;
      }

      .cls-235 {
        fill: #256764;
      }

      .cls-236 {
        fill: #b4628e;
      }

      .cls-237 {
        fill: #23656c;
      }

      .cls-238 {
        fill: #b45d78;
      }

      .cls-239 {
        fill: #aa595f;
      }

      .cls-240 {
        fill: #626c9d;
      }

      .cls-241 {
        fill: #6b6d9f;
      }

      .cls-242 {
        fill: #6c6d9f;
      }

      .cls-243 {
        fill: #b25c72;
      }

      .cls-244 {
        fill: #b55d7b;
      }

      .cls-245 {
        fill: #636c9d;
      }

      .cls-246 {
        fill: #5f6c9c;
      }

      .cls-247 {
        fill: #756ea1;
      }

      .cls-248 {
        fill: #2e648c;
      }

      .cls-249 {
        fill: #646d9d;
      }

      .cls-250 {
        fill: #b15b71;
      }

      .cls-251 {
        fill: #3d6792;
      }

      .cls-252 {
        fill: #426c38;
      }

      .cls-253 {
        fill: #b16493;
      }

      .cls-254 {
        fill: #266389;
      }

      .cls-255 {
        fill: #446c35;
      }

      .cls-256 {
        fill: #1e6282;
      }

      .cls-257 {
        fill: #ab5960;
      }

      .cls-258 {
        fill: #276760;
      }

      .cls-259 {
        fill: #8e4e36;
      }

      .cls-260 {
        fill: #8b4d33;
      }

      .cls-261 {
        fill: #346a4e;
      }

      .cls-262 {
        fill: #9f6ca4;
      }

      .cls-263 {
        fill: #97513f;
      }

      .cls-264 {
        fill: #776fa1;
      }

      .cls-265 {
        fill: #a3564e;
      }

      .cls-266 {
        fill: #206379;
      }

      .cls-267 {
        fill: #23666b;
      }

      .cls-268 {
        fill: #9c5344;
      }

      .cls-269 {
        fill: #346a4d;
      }

      .cls-270 {
        fill: #256389;
      }

      .cls-271 {
        fill: #a3564f;
      }

      .cls-272 {
        fill: #4e6a98;
      }

      .cls-273 {
        fill: #27638a;
      }

      .cls-274 {
        fill: #426894;
      }

      .cls-275 {
        fill: #a86aa1;
      }

      .cls-276 {
        fill: #8a6fa4;
      }

      .cls-277 {
        fill: #8d4d35;
      }

      .cls-278 {
        fill: #ae5a6a;
      }

      .cls-279 {
        fill: #ad5a67;
      }

      .cls-280 {
        fill: #486996;
      }

      .cls-281 {
        fill: #596b9b;
      }

      .cls-282 {
        fill: #af6697;
      }

      .cls-283 {
        fill: #28638a;
      }

      .cls-284 {
        fill: #28675f;
      }

      .cls-285 {
        fill: #3a6691;
      }

      .cls-286 {
        fill: #8070a4;
      }

      .cls-287 {
        fill: #b26491;
      }

      .cls-288 {
        fill: #5d6c9c;
      }

      .cls-289 {
        fill: #246668;
      }

      .cls-290 {
        fill: #76451e;
      }

      .cls-291 {
        fill: #206287;
      }

      .cls-292 {
        fill: #af5b6c;
      }

      .cls-293 {
        fill: #a85859;
      }

      .cls-294 {
        fill: #a2554c;
      }

      .cls-295 {
        fill: #834a2b;
      }

      .cls-296 {
        fill: #2a638b;
      }

      .cls-297 {
        fill: #a8585b;
      }

      .cls-298 {
        fill: #6e4216;
      }

      .cls-299 {
        fill: #b55d7a;
      }

      .cls-300 {
        fill: #496996;
      }

      .cls-301 {
        fill: #7a6fa2;
      }

      .cls-302 {
        fill: #4c6a97;
      }

      .cls-303 {
        fill: #256765;
      }

      .cls-304 {
        fill: #366a4a;
      }

      .cls-305 {
        fill: #3d6b40;
      }

      .cls-306 {
        fill: #7b6fa2;
      }

      .cls-307 {
        fill: #ae6699;
      }

      .cls-308 {
        fill: #316952;
      }

      .cls-309 {
        fill: #796fa2;
      }

      .cls-310 {
        fill: #9f5447;
      }

      .cls-311 {
        fill: #30658d;
      }

      .cls-312 {
        fill: #766fa1;
      }

      .cls-313 {
        fill: #2a685c;
      }

      .cls-314 {
        fill: #526a99;
      }

      .cls-315 {
        fill: #8f6ea4;
      }

      .cls-316 {
        fill: #356a4c;
      }

      .cls-317 {
        fill: #6d6e9f;
      }

      .cls-318 {
        fill: #456895;
      }

      .cls-319 {
        fill: #a45651;
      }

      .cls-320 {
        fill: #7e70a3;
      }

      .cls-321 {
        fill: #996da4;
      }

      .cls-322 {
        fill: #5e6c9c;
      }

      .cls-323 {
        fill: #9d5345;
      }

      .cls-324 {
        fill: #1e6280;
      }

      .cls-325 {
        fill: #986da4;
      }

      .cls-326 {
        fill: #3e6b3e;
      }

      .cls-327 {
        fill: #326951;
      }

      .cls-328 {
        fill: #884c30;
      }

      .cls-329 {
        fill: #23656d;
      }

      .cls-330 {
        fill: #1f637d;
      }

      .cls-331 {
        fill: #914f39;
      }

      .cls-332 {
        fill: #ad5a65;
      }

      .cls-333 {
        fill: #74441c;
      }

      .cls-334 {
        fill: #3f6792;
      }

      .cls-335 {
        fill: #b95f87;
      }

      .cls-336 {
        fill: #7c4724;
      }

      .cls-337 {
        fill: #824a2a;
      }

      .cls-338 {
        fill: #33658e;
      }

      .cls-339 {
        fill: #246667;
      }

      .cls-340 {
        fill: #886fa4;
      }

      .cls-341 {
        fill: #3c6791;
      }

      .cls-342 {
        fill: #7c6fa3;
      }

      .cls-343 {
        fill: #b86089;
      }

      .cls-344 {
        fill: #576b9a;
      }

      .cls-345 {
        fill: #1d6184;
      }

      .cls-346 {
        clip-path: url(#clippath);
      }

      .cls-347 {
        fill: #226571;
      }

      .cls-348 {
        fill: #b96088;
      }

      .cls-349 {
        fill: #956da4;
      }

      .cls-350 {
        fill: #72441a;
      }

      .cls-351 {
        fill: #516a99;
      }

      .cls-352 {
        fill: #b6618c;
      }

      .cls-353 {
        fill: #aa699e;
      }

      .cls-354 {
        fill: #2e6956;
      }

      .cls-355 {
        fill: #77461f;
      }

      .cls-356 {
        fill: #ac679b;
      }

      .cls-357 {
        fill: #b36390;
      }

      .cls-358 {
        fill: #7b4723;
      }

      .cls-359 {
        fill: #926ea4;
      }

      .cls-360 {
        fill: #7f4927;
      }

      .cls-361 {
        fill: #a26ca4;
      }

      .cls-362 {
        fill: #216476;
      }

      .cls-363 {
        fill: #4f6a98;
      }
    </style>
    <clipPath id="clippath">
      <rect class="cls-110" x="1571.2" y="1494.8" width="837.5" height="123.1"/>
    </clipPath>
  </defs>
  <!-- Generator: Adobe Illustrator 28.7.1, SVG Export Plug-In . SVG Version: 1.2.0 Build 142)  -->
  <g>
    <g id="Capa_1">
      <g>
        <path d="M1519,354h-310.9l2.4,927.6h-270.5l-2.3-927.6-317.4-1.7V124.3h898.8v229.7Z"/>
        <path d="M2441.1,994.4c0,52.7-9.6,98-28.8,135.9-19.2,37.9-45.6,69-79.2,93.1-33.6,24.2-72.7,42-117.4,53.6-44.6,11.5-91.9,17.3-141.9,17.3h-502.6V124.3h593.3c35.5,0,67.7,8.8,96.5,26.4,28.8,17.6,53.3,40.4,73.4,68.4,20.2,28,35.8,59.9,46.8,95.6,11,35.7,16.6,72.3,16.6,109.6,0,54.9-12.2,107.4-36.7,157.4-24.5,50-61.2,87.6-110.2,112.9,58.6,19.8,104.9,54.1,139,103,34.1,48.9,51.1,114.5,51.1,196.9ZM1852,397.9v179.6h191.5c19.2,0,36.7-6,52.6-18.1,15.8-12.1,23.8-36.2,23.8-72.5s-6.7-54.6-20.2-68.4c-13.5-13.7-29.3-20.6-47.5-20.6h-200.2ZM2155.9,928.5c0-28.6-6.7-52.4-20.2-71.7-13.5-19.2-30.7-28.8-51.8-28.8h-231.9v196.1h221.8c23,0,42.5-8.2,58.3-24.7,15.8-16.5,23.8-40.1,23.8-70.9Z"/>
        <polygon points="572.2 1043.2 448.1 1043.2 448.1 353.1 566.6 353.1 566.6 118.3 448.1 118.3 153 118.3 23.4 118.3 23.4 353.1 153 353.1 153 1043.2 29 1043.2 29 1277.9 153 1277.9 153 1281.6 448.1 1281.6 448.1 1277.9 572.2 1277.9 572.2 1043.2"/>
        <g class="cls-346">
          <path class="cls-168" d="M1571.2,1494.8v123.1-123.1Z"/>
          <rect class="cls-168" x="1571.2" y="1494.8" width="1.9" height="123.1"/>
          <rect class="cls-74" x="1573.1" y="1494.8" width="1.9" height="123.1"/>
          <rect class="cls-105" x="1575" y="1494.8" width="1.9" height="123.1"/>
          <rect class="cls-118" x="1576.9" y="1494.8" width="1.9" height="123.1"/>
          <rect class="cls-179" x="1578.8" y="1494.8" width="1.9" height="123.1"/>
          <rect class="cls-255" x="1580.6" y="1494.8" width="1.9" height="123.1"/>
          <rect class="cls-130" x="1582.5" y="1494.8" width="1.9" height="123.1"/>
          <rect class="cls-52" x="1584.4" y="1494.8" width="1.9" height="123.1"/>
          <rect class="cls-252" x="1586.3" y="1494.8" width="1.9" height="123.1"/>
          <rect class="cls-123" x="1588.2" y="1494.8" width="1.9" height="123.1"/>
          <rect class="cls-200" x="1590.1" y="1494.8" width="1.9" height="123.1"/>
          <rect class="cls-90" x="1592" y="1494.8" width="1.9" height="123.1"/>
          <rect class="cls-217" x="1593.9" y="1494.8" width="1.9" height="123.1"/>
          <rect class="cls-206" x="1595.7" y="1494.8" width="1.9" height="123.1"/>
          <rect class="cls-326" x="1597.6" y="1494.8" width="1.9" height="123.1"/>
          <rect class="cls-34" x="1599.5" y="1494.8" width="1.9" height="123.1"/>
          <rect class="cls-305" x="1601.4" y="1494.8" width="1.9" height="123.1"/>
          <rect class="cls-99" x="1603.3" y="1494.8" width="1.9" height="123.1"/>
          <rect class="cls-12" x="1605.2" y="1494.8" width="1.9" height="123.1"/>
          <rect class="cls-41" x="1607.1" y="1494.8" width="1.9" height="123.1"/>
          <rect class="cls-153" x="1609" y="1494.8" width="1.9" height="123.1"/>
          <rect class="cls-220" x="1610.8" y="1494.8" width="1.9" height="123.1"/>
          <rect class="cls-136" x="1612.7" y="1494.8" width="1.9" height="123.1"/>
          <rect class="cls-162" x="1614.6" y="1494.8" width="1.9" height="123.1"/>
          <rect class="cls-121" x="1616.5" y="1494.8" width="1.9" height="123.1"/>
          <rect class="cls-304" x="1618.4" y="1494.8" width="1.9" height="123.1"/>
          <rect class="cls-134" x="1620.3" y="1494.8" width="1.9" height="123.1"/>
          <rect class="cls-316" x="1622.2" y="1494.8" width="1.9" height="123.1"/>
          <rect class="cls-269" x="1624.1" y="1494.8" width="1.9" height="123.1"/>
          <rect class="cls-261" x="1625.9" y="1494.8" width="1.9" height="123.1"/>
          <rect class="cls-226" x="1627.8" y="1494.8" width="1.9" height="123.1"/>
          <rect class="cls-92" x="1629.7" y="1494.8" width="1.9" height="123.1"/>
          <rect class="cls-327" x="1631.6" y="1494.8" width="1.9" height="123.1"/>
          <rect class="cls-308" x="1633.5" y="1494.8" width="1.9" height="123.1"/>
          <rect class="cls-122" x="1635.4" y="1494.8" width="1.9" height="123.1"/>
          <rect class="cls-8" x="1637.3" y="1494.8" width="1.9" height="123.1"/>
          <rect class="cls-56" x="1639.2" y="1494.8" width="1.9" height="123.1"/>
          <rect class="cls-354" x="1641" y="1494.8" width="1.9" height="123.1"/>
          <rect class="cls-124" x="1642.9" y="1494.8" width="1.9" height="123.1"/>
          <rect class="cls-113" x="1644.8" y="1494.8" width="1.9" height="123.1"/>
          <rect class="cls-94" x="1646.7" y="1494.8" width="1.9" height="123.1"/>
          <rect class="cls-183" x="1648.6" y="1494.8" width="1.9" height="123.1"/>
          <rect class="cls-164" x="1650.5" y="1494.8" width="1.9" height="123.1"/>
          <rect class="cls-313" x="1652.4" y="1494.8" width="1.9" height="123.1"/>
          <rect class="cls-213" x="1654.3" y="1494.8" width="1.9" height="123.1"/>
          <rect class="cls-46" x="1656.1" y="1494.8" width="1.9" height="123.1"/>
          <rect class="cls-284" x="1658" y="1494.8" width="1.9" height="123.1"/>
          <rect class="cls-258" x="1659.9" y="1494.8" width="1.9" height="123.1"/>
          <rect class="cls-151" x="1661.8" y="1494.8" width="1.9" height="123.1"/>
          <rect class="cls-70" x="1663.7" y="1494.8" width="1.9" height="123.1"/>
          <rect class="cls-156" x="1665.6" y="1494.8" width="1.9" height="123.1"/>
          <rect class="cls-156" x="1667.5" y="1494.8" width="3" height="123.1"/>
          <rect class="cls-235" x="1670.4" y="1494.8" width="3" height="123.1"/>
          <rect class="cls-303" x="1673.4" y="1494.8" width="3" height="123.1"/>
          <rect class="cls-185" x="1676.4" y="1494.8" width="3" height="123.1"/>
          <rect class="cls-339" x="1679.4" y="1494.8" width="3" height="123.1"/>
          <rect class="cls-289" x="1682.3" y="1494.8" width="3" height="123.1"/>
          <rect class="cls-16" x="1685.3" y="1494.8" width="3" height="123.1"/>
          <rect class="cls-197" x="1688.3" y="1494.8" width="3" height="123.1"/>
          <rect class="cls-267" x="1691.3" y="1494.8" width="3" height="123.1"/>
          <rect class="cls-237" x="1694.3" y="1494.8" width="3" height="123.1"/>
          <rect class="cls-329" x="1697.2" y="1494.8" width="3" height="123.1"/>
          <rect class="cls-28" x="1700.2" y="1494.8" width="3" height="123.1"/>
          <rect class="cls-85" x="1703.2" y="1494.8" width="3" height="123.1"/>
          <rect class="cls-196" x="1706.2" y="1494.8" width="3" height="123.1"/>
          <rect class="cls-347" x="1709.1" y="1494.8" width="3" height="123.1"/>
          <rect class="cls-96" x="1712.1" y="1494.8" width="3" height="123.1"/>
          <rect class="cls-20" x="1715.1" y="1494.8" width="3" height="123.1"/>
          <rect class="cls-223" x="1718.1" y="1494.8" width="3" height="123.1"/>
          <rect class="cls-362" x="1721.1" y="1494.8" width="3" height="123.1"/>
          <rect class="cls-177" x="1724" y="1494.8" width="3" height="123.1"/>
          <rect class="cls-186" x="1727" y="1494.8" width="3" height="123.1"/>
          <rect class="cls-266" x="1730" y="1494.8" width="3" height="123.1"/>
          <rect class="cls-100" x="1733" y="1494.8" width="3" height="123.1"/>
          <rect class="cls-149" x="1735.9" y="1494.8" width="3" height="123.1"/>
          <rect class="cls-80" x="1738.9" y="1494.8" width="3" height="123.1"/>
          <rect class="cls-330" x="1741.9" y="1494.8" width="3" height="123.1"/>
          <rect class="cls-218" x="1744.9" y="1494.8" width="3" height="123.1"/>
          <rect class="cls-194" x="1747.9" y="1494.8" width="3" height="123.1"/>
          <rect class="cls-324" x="1750.8" y="1494.8" width="3" height="123.1"/>
          <rect class="cls-48" x="1753.8" y="1494.8" width="3" height="123.1"/>
          <rect class="cls-256" x="1756.8" y="1494.8" width="3" height="123.1"/>
          <rect class="cls-88" x="1759.8" y="1494.8" width="3" height="123.1"/>
          <rect class="cls-345" x="1762.7" y="1494.8" width="3" height="123.1"/>
          <rect class="cls-163" x="1765.7" y="1494.8" width="3" height="123.1"/>
          <rect class="cls-207" x="1768.7" y="1494.8" width="3" height="123.1"/>
          <rect class="cls-207" x="1771.7" y="1494.8" width="2.1" height="123.1"/>
          <rect class="cls-83" x="1773.7" y="1494.8" width="2.1" height="123.1"/>
          <rect class="cls-75" x="1775.8" y="1494.8" width="2.1" height="123.1"/>
          <rect class="cls-291" x="1777.9" y="1494.8" width="2.1" height="123.1"/>
          <rect class="cls-148" x="1779.9" y="1494.8" width="2.1" height="123.1"/>
          <rect class="cls-190" x="1782" y="1494.8" width="2.1" height="123.1"/>
          <rect class="cls-55" x="1784.1" y="1494.8" width="2.1" height="123.1"/>
          <rect class="cls-1" x="1786.1" y="1494.8" width="2.1" height="123.1"/>
          <rect class="cls-270" x="1788.2" y="1494.8" width="2.1" height="123.1"/>
          <rect class="cls-254" x="1790.3" y="1494.8" width="2.1" height="123.1"/>
          <rect class="cls-273" x="1792.3" y="1494.8" width="2.1" height="123.1"/>
          <rect class="cls-283" x="1794.4" y="1494.8" width="2.1" height="123.1"/>
          <rect class="cls-132" x="1796.5" y="1494.8" width="2.1" height="123.1"/>
          <rect class="cls-296" x="1798.6" y="1494.8" width="2.1" height="123.1"/>
          <rect class="cls-17" x="1800.6" y="1494.8" width="2.1" height="123.1"/>
          <rect class="cls-180" x="1802.7" y="1494.8" width="2.1" height="123.1"/>
          <rect class="cls-126" x="1804.8" y="1494.8" width="2.1" height="123.1"/>
          <rect class="cls-248" x="1806.8" y="1494.8" width="2.1" height="123.1"/>
          <rect class="cls-159" x="1808.9" y="1494.8" width="2.1" height="123.1"/>
          <rect class="cls-311" x="1811" y="1494.8" width="2.1" height="123.1"/>
          <rect class="cls-76" x="1813" y="1494.8" width="2.1" height="123.1"/>
          <rect class="cls-198" x="1815.1" y="1494.8" width="2.1" height="123.1"/>
          <rect class="cls-338" x="1817.2" y="1494.8" width="2.1" height="123.1"/>
          <rect class="cls-5" x="1819.2" y="1494.8" width="2.1" height="123.1"/>
          <rect class="cls-69" x="1821.3" y="1494.8" width="2.1" height="123.1"/>
          <rect class="cls-231" x="1823.4" y="1494.8" width="2.1" height="123.1"/>
          <rect class="cls-84" x="1825.4" y="1494.8" width="2.1" height="123.1"/>
          <rect class="cls-111" x="1827.5" y="1494.8" width="2.1" height="123.1"/>
          <rect class="cls-285" x="1829.6" y="1494.8" width="2.1" height="123.1"/>
          <rect class="cls-103" x="1831.6" y="1494.8" width="2.1" height="123.1"/>
          <rect class="cls-341" x="1833.7" y="1494.8" width="2.1" height="123.1"/>
          <rect class="cls-251" x="1835.8" y="1494.8" width="2.1" height="123.1"/>
          <rect class="cls-181" x="1837.8" y="1494.8" width="2.1" height="123.1"/>
          <rect class="cls-334" x="1839.9" y="1494.8" width="2.1" height="123.1"/>
          <rect class="cls-36" x="1842" y="1494.8" width="2.1" height="123.1"/>
          <rect class="cls-72" x="1844" y="1494.8" width="2.1" height="123.1"/>
          <rect class="cls-274" x="1846.1" y="1494.8" width="2.1" height="123.1"/>
          <rect class="cls-10" x="1848.2" y="1494.8" width="2.1" height="123.1"/>
          <rect class="cls-233" x="1850.3" y="1494.8" width="2.1" height="123.1"/>
          <rect class="cls-318" x="1852.3" y="1494.8" width="2.1" height="123.1"/>
          <rect class="cls-78" x="1854.4" y="1494.8" width="2.1" height="123.1"/>
          <rect class="cls-141" x="1856.5" y="1494.8" width="2.1" height="123.1"/>
          <rect class="cls-280" x="1858.5" y="1494.8" width="2.1" height="123.1"/>
          <rect class="cls-300" x="1860.6" y="1494.8" width="2.1" height="123.1"/>
          <rect class="cls-116" x="1862.7" y="1494.8" width="2.1" height="123.1"/>
          <rect class="cls-57" x="1864.7" y="1494.8" width="2.1" height="123.1"/>
          <rect class="cls-302" x="1866.8" y="1494.8" width="2.1" height="123.1"/>
          <rect class="cls-174" x="1868.9" y="1494.8" width="2.1" height="123.1"/>
          <rect class="cls-272" x="1870.9" y="1494.8" width="2.1" height="123.1"/>
          <rect class="cls-272" x="1873" y="1494.8" width="2.2" height="123.1"/>
          <rect class="cls-363" x="1875.2" y="1494.8" width="2.2" height="123.1"/>
          <rect class="cls-15" x="1877.5" y="1494.8" width="2.2" height="123.1"/>
          <rect class="cls-351" x="1879.7" y="1494.8" width="2.2" height="123.1"/>
          <rect class="cls-314" x="1882" y="1494.8" width="2.2" height="123.1"/>
          <rect class="cls-139" x="1884.2" y="1494.8" width="2.2" height="123.1"/>
          <rect class="cls-37" x="1886.5" y="1494.8" width="2.2" height="123.1"/>
          <rect class="cls-193" x="1888.7" y="1494.8" width="2.2" height="123.1"/>
          <rect class="cls-182" x="1891" y="1494.8" width="2.2" height="123.1"/>
          <rect class="cls-344" x="1893.2" y="1494.8" width="2.2" height="123.1"/>
          <rect class="cls-82" x="1895.5" y="1494.8" width="2.2" height="123.1"/>
          <rect class="cls-281" x="1897.7" y="1494.8" width="2.2" height="123.1"/>
          <rect class="cls-209" x="1900" y="1494.8" width="2.2" height="123.1"/>
          <rect class="cls-79" x="1902.2" y="1494.8" width="2.2" height="123.1"/>
          <rect class="cls-25" x="1904.5" y="1494.8" width="2.2" height="123.1"/>
          <rect class="cls-288" x="1906.7" y="1494.8" width="2.2" height="123.1"/>
          <rect class="cls-322" x="1909" y="1494.8" width="2.2" height="123.1"/>
          <rect class="cls-246" x="1911.2" y="1494.8" width="2.2" height="123.1"/>
          <rect class="cls-43" x="1913.5" y="1494.8" width="2.2" height="123.1"/>
          <rect class="cls-229" x="1915.7" y="1494.8" width="2.2" height="123.1"/>
          <rect class="cls-240" x="1918" y="1494.8" width="2.2" height="123.1"/>
          <rect class="cls-245" x="1920.2" y="1494.8" width="2.2" height="123.1"/>
          <rect class="cls-249" x="1922.5" y="1494.8" width="2.2" height="123.1"/>
          <rect class="cls-222" x="1924.7" y="1494.8" width="2.2" height="123.1"/>
          <rect class="cls-214" x="1927" y="1494.8" width="2.2" height="123.1"/>
          <rect class="cls-204" x="1929.2" y="1494.8" width="2.2" height="123.1"/>
          <rect class="cls-160" x="1931.5" y="1494.8" width="2.2" height="123.1"/>
          <rect class="cls-35" x="1933.7" y="1494.8" width="2.2" height="123.1"/>
          <rect class="cls-241" x="1936" y="1494.8" width="2.2" height="123.1"/>
          <rect class="cls-242" x="1938.2" y="1494.8" width="2.2" height="123.1"/>
          <rect class="cls-317" x="1940.5" y="1494.8" width="2.2" height="123.1"/>
          <rect class="cls-120" x="1942.7" y="1494.8" width="2.2" height="123.1"/>
          <rect class="cls-95" x="1945" y="1494.8" width="2.2" height="123.1"/>
          <rect class="cls-108" x="1947.2" y="1494.8" width="2.2" height="123.1"/>
          <rect class="cls-66" x="1949.5" y="1494.8" width="2.2" height="123.1"/>
          <rect class="cls-140" x="1951.7" y="1494.8" width="2.2" height="123.1"/>
          <rect class="cls-71" x="1954" y="1494.8" width="2.2" height="123.1"/>
          <rect class="cls-173" x="1956.2" y="1494.8" width="2.2" height="123.1"/>
          <rect class="cls-247" x="1958.5" y="1494.8" width="2.2" height="123.1"/>
          <rect class="cls-312" x="1960.7" y="1494.8" width="2.2" height="123.1"/>
          <rect class="cls-264" x="1963" y="1494.8" width="2.2" height="123.1"/>
          <rect class="cls-63" x="1965.2" y="1494.8" width="2.2" height="123.1"/>
          <rect class="cls-309" x="1967.5" y="1494.8" width="2.2" height="123.1"/>
          <rect class="cls-301" x="1969.7" y="1494.8" width="2.2" height="123.1"/>
          <rect class="cls-306" x="1972" y="1494.8" width="2.2" height="123.1"/>
          <rect class="cls-342" x="1974.2" y="1494.8" width="2.2" height="123.1"/>
          <rect class="cls-91" x="1976.5" y="1494.8" width="2.2" height="123.1"/>
          <rect class="cls-320" x="1978.7" y="1494.8" width="2.2" height="123.1"/>
          <rect class="cls-144" x="1981" y="1494.8" width="2.2" height="123.1"/>
          <rect class="cls-286" x="1983.2" y="1494.8" width="2.2" height="123.1"/>
          <rect class="cls-3" x="1985.5" y="1494.8" width="2.2" height="123.1"/>
          <rect class="cls-137" x="1987.7" y="1494.8" width="2.2" height="123.1"/>
          <rect class="cls-137" x="1990" y="1494.8" width="3.5" height="123.1"/>
          <rect class="cls-21" x="1993.5" y="1494.8" width="3.5" height="123.1"/>
          <rect class="cls-158" x="1997" y="1494.8" width="3.5" height="123.1"/>
          <rect class="cls-224" x="2000.5" y="1494.8" width="3.5" height="123.1"/>
          <rect class="cls-114" x="2004" y="1494.8" width="3.5" height="123.1"/>
          <rect class="cls-81" x="2007.5" y="1494.8" width="3.5" height="123.1"/>
          <rect class="cls-340" x="2011" y="1494.8" width="3.5" height="123.1"/>
          <rect class="cls-18" x="2014.5" y="1494.8" width="3.5" height="123.1"/>
          <rect class="cls-276" x="2018" y="1494.8" width="3.5" height="123.1"/>
          <rect class="cls-170" x="2021.6" y="1494.8" width="3.5" height="123.1"/>
          <rect class="cls-11" x="2025.1" y="1494.8" width="3.5" height="123.1"/>
          <rect class="cls-135" x="2028.6" y="1494.8" width="3.5" height="123.1"/>
          <rect class="cls-40" x="2032.1" y="1494.8" width="3.5" height="123.1"/>
          <rect class="cls-315" x="2035.6" y="1494.8" width="3.5" height="123.1"/>
          <rect class="cls-49" x="2039.1" y="1494.8" width="3.5" height="123.1"/>
          <rect class="cls-87" x="2042.6" y="1494.8" width="3.5" height="123.1"/>
          <rect class="cls-359" x="2046.1" y="1494.8" width="3.5" height="123.1"/>
          <rect class="cls-53" x="2049.6" y="1494.8" width="3.5" height="123.1"/>
          <rect class="cls-349" x="2053.1" y="1494.8" width="3.5" height="123.1"/>
          <rect class="cls-77" x="2056.6" y="1494.8" width="3.5" height="123.1"/>
          <rect class="cls-189" x="2060.2" y="1494.8" width="3.5" height="123.1"/>
          <rect class="cls-325" x="2063.7" y="1494.8" width="3.5" height="123.1"/>
          <rect class="cls-321" x="2067.2" y="1494.8" width="3.5" height="123.1"/>
          <rect class="cls-221" x="2070.7" y="1494.8" width="3.5" height="123.1"/>
          <rect class="cls-152" x="2074.2" y="1494.8" width="3.5" height="123.1"/>
          <rect class="cls-60" x="2077.7" y="1494.8" width="3.5" height="123.1"/>
          <rect class="cls-143" x="2081.2" y="1494.8" width="3.5" height="123.1"/>
          <rect class="cls-58" x="2084.7" y="1494.8" width="3.5" height="123.1"/>
          <rect class="cls-262" x="2088.2" y="1494.8" width="3.5" height="123.1"/>
          <rect class="cls-13" x="2091.7" y="1494.8" width="3.5" height="123.1"/>
          <rect class="cls-166" x="2095.2" y="1494.8" width="3.5" height="123.1"/>
          <rect class="cls-361" x="2098.8" y="1494.8" width="3.5" height="123.1"/>
          <rect class="cls-68" x="2102.3" y="1494.8" width="3.5" height="123.1"/>
          <rect class="cls-89" x="2105.8" y="1494.8" width="3.5" height="123.1"/>
          <rect class="cls-119" x="2109.3" y="1494.8" width="3.5" height="123.1"/>
          <rect class="cls-167" x="2112.8" y="1494.8" width="3.5" height="123.1"/>
          <rect class="cls-167" x="2116.3" y="1494.8" width="4.2" height="123.1"/>
          <rect class="cls-24" x="2120.5" y="1494.8" width="4.2" height="123.1"/>
          <rect class="cls-178" x="2124.7" y="1494.8" width="4.2" height="123.1"/>
          <rect class="cls-275" x="2128.9" y="1494.8" width="4.2" height="123.1"/>
          <rect class="cls-62" x="2133.1" y="1494.8" width="4.2" height="123.1"/>
          <rect class="cls-234" x="2137.4" y="1494.8" width="4.2" height="123.1"/>
          <rect class="cls-353" x="2141.6" y="1494.8" width="4.2" height="123.1"/>
          <rect class="cls-199" x="2145.8" y="1494.8" width="4.2" height="123.1"/>
          <rect class="cls-97" x="2150" y="1494.8" width="4.2" height="123.1"/>
          <rect class="cls-356" x="2154.2" y="1494.8" width="4.2" height="123.1"/>
          <rect class="cls-104" x="2158.4" y="1494.8" width="4.2" height="123.1"/>
          <rect class="cls-307" x="2162.6" y="1494.8" width="4.2" height="123.1"/>
          <rect class="cls-203" x="2166.8" y="1494.8" width="4.2" height="123.1"/>
          <rect class="cls-282" x="2171" y="1494.8" width="4.2" height="123.1"/>
          <rect class="cls-145" x="2175.2" y="1494.8" width="4.2" height="123.1"/>
          <rect class="cls-191" x="2179.5" y="1494.8" width="4.2" height="123.1"/>
          <rect class="cls-253" x="2183.7" y="1494.8" width="4.2" height="123.1"/>
          <rect class="cls-165" x="2187.9" y="1494.8" width="4.2" height="123.1"/>
          <rect class="cls-287" x="2192.1" y="1494.8" width="4.2" height="123.1"/>
          <rect class="cls-357" x="2196.3" y="1494.8" width="4.2" height="123.1"/>
          <rect class="cls-172" x="2200.5" y="1494.8" width="4.2" height="123.1"/>
          <rect class="cls-236" x="2204.7" y="1494.8" width="4.2" height="123.1"/>
          <rect class="cls-44" x="2208.9" y="1494.8" width="4.2" height="123.1"/>
          <rect class="cls-352" x="2213.1" y="1494.8" width="4.2" height="123.1"/>
          <rect class="cls-27" x="2217.4" y="1494.8" width="4.2" height="123.1"/>
          <rect class="cls-155" x="2221.6" y="1494.8" width="4.2" height="123.1"/>
          <rect class="cls-343" x="2225.8" y="1494.8" width="4.2" height="123.1"/>
          <rect class="cls-348" x="2230" y="1494.8" width="4.2" height="123.1"/>
          <rect class="cls-335" x="2234.2" y="1494.8" width="4.2" height="123.1"/>
          <rect class="cls-175" x="2238.4" y="1494.8" width="4.2" height="123.1"/>
          <rect class="cls-175" x="2242.6" y="1494.8" width="1.5" height="123.1"/>
          <rect class="cls-51" x="2244.1" y="1494.8" width="1.5" height="123.1"/>
          <rect class="cls-188" x="2245.5" y="1494.8" width="1.5" height="123.1"/>
          <rect class="cls-38" x="2247" y="1494.8" width="1.5" height="123.1"/>
          <rect class="cls-127" x="2248.5" y="1494.8" width="1.5" height="123.1"/>
          <rect class="cls-184" x="2249.9" y="1494.8" width="1.5" height="123.1"/>
          <rect class="cls-59" x="2251.4" y="1494.8" width="1.5" height="123.1"/>
          <rect class="cls-22" x="2252.8" y="1494.8" width="1.5" height="123.1"/>
          <rect class="cls-142" x="2254.3" y="1494.8" width="1.5" height="123.1"/>
          <rect class="cls-176" x="2255.7" y="1494.8" width="1.5" height="123.1"/>
          <rect class="cls-33" x="2257.2" y="1494.8" width="1.5" height="123.1"/>
          <rect class="cls-244" x="2258.7" y="1494.8" width="1.5" height="123.1"/>
          <rect class="cls-299" x="2260.1" y="1494.8" width="1.5" height="123.1"/>
          <rect class="cls-23" x="2261.6" y="1494.8" width="1.5" height="123.1"/>
          <rect class="cls-238" x="2263" y="1494.8" width="1.5" height="123.1"/>
          <rect class="cls-107" x="2264.5" y="1494.8" width="1.5" height="123.1"/>
          <rect class="cls-125" x="2265.9" y="1494.8" width="1.5" height="123.1"/>
          <rect class="cls-39" x="2267.4" y="1494.8" width="1.5" height="123.1"/>
          <rect class="cls-29" x="2268.9" y="1494.8" width="1.5" height="123.1"/>
          <rect class="cls-154" x="2270.3" y="1494.8" width="1.5" height="123.1"/>
          <rect class="cls-243" x="2271.8" y="1494.8" width="1.5" height="123.1"/>
          <rect class="cls-250" x="2273.2" y="1494.8" width="1.5" height="123.1"/>
          <rect class="cls-227" x="2274.7" y="1494.8" width="1.5" height="123.1"/>
          <rect class="cls-228" x="2276.1" y="1494.8" width="1.5" height="123.1"/>
          <rect class="cls-157" x="2277.6" y="1494.8" width="1.5" height="123.1"/>
          <rect class="cls-201" x="2279.1" y="1494.8" width="1.5" height="123.1"/>
          <rect class="cls-292" x="2280.5" y="1494.8" width="1.5" height="123.1"/>
          <rect class="cls-64" x="2282" y="1494.8" width="1.5" height="123.1"/>
          <rect class="cls-278" x="2283.4" y="1494.8" width="1.5" height="123.1"/>
          <rect class="cls-210" x="2284.9" y="1494.8" width="1.5" height="123.1"/>
          <rect class="cls-279" x="2286.3" y="1494.8" width="1.5" height="123.1"/>
          <rect class="cls-147" x="2287.8" y="1494.8" width="1.5" height="123.1"/>
          <rect class="cls-332" x="2289.3" y="1494.8" width="1.5" height="123.1"/>
          <rect class="cls-212" x="2290.7" y="1494.8" width="1.5" height="123.1"/>
          <rect class="cls-65" x="2292.2" y="1494.8" width="1.5" height="123.1"/>
          <rect class="cls-61" x="2293.6" y="1494.8" width="1.5" height="123.1"/>
          <rect class="cls-187" x="2295.1" y="1494.8" width="1.5" height="123.1"/>
          <rect class="cls-257" x="2296.5" y="1494.8" width="1.5" height="123.1"/>
          <rect class="cls-239" x="2298" y="1494.8" width="1.5" height="123.1"/>
          <rect class="cls-232" x="2299.5" y="1494.8" width="1.5" height="123.1"/>
          <rect class="cls-7" x="2300.9" y="1494.8" width="1.5" height="123.1"/>
          <rect class="cls-67" x="2302.4" y="1494.8" width="1.5" height="123.1"/>
          <rect class="cls-297" x="2303.8" y="1494.8" width="1.5" height="123.1"/>
          <rect class="cls-112" x="2305.3" y="1494.8" width="1.5" height="123.1"/>
          <rect class="cls-293" x="2306.7" y="1494.8" width="1.5" height="123.1"/>
          <rect class="cls-128" x="2308.2" y="1494.8" width="1.5" height="123.1"/>
          <rect class="cls-161" x="2309.7" y="1494.8" width="1.5" height="123.1"/>
          <rect class="cls-2" x="2311.1" y="1494.8" width="1.5" height="123.1"/>
          <rect class="cls-102" x="2312.6" y="1494.8" width="1.5" height="123.1"/>
          <rect class="cls-4" x="2314" y="1494.8" width="1.5" height="123.1"/>
          <rect class="cls-6" x="2315.5" y="1494.8" width="1.5" height="123.1"/>
          <rect class="cls-19" x="2316.9" y="1494.8" width="1.5" height="123.1"/>
          <rect class="cls-319" x="2318.4" y="1494.8" width="1.5" height="123.1"/>
          <rect class="cls-93" x="2319.9" y="1494.8" width="1.5" height="123.1"/>
          <rect class="cls-271" x="2321.3" y="1494.8" width="1.5" height="123.1"/>
          <rect class="cls-265" x="2322.8" y="1494.8" width="1.5" height="123.1"/>
          <rect class="cls-31" x="2324.2" y="1494.8" width="1.5" height="123.1"/>
          <rect class="cls-294" x="2325.7" y="1494.8" width="1.5" height="123.1"/>
          <rect class="cls-101" x="2327.2" y="1494.8" width="1.5" height="123.1"/>
          <rect class="cls-30" x="2328.6" y="1494.8" width="1.5" height="123.1"/>
          <rect class="cls-50" x="2330.1" y="1494.8" width="1.5" height="123.1"/>
          <rect class="cls-50" x="2331.5" y="1494.8" width="1.4" height="123.1"/>
          <rect class="cls-115" x="2333" y="1494.8" width="1.4" height="123.1"/>
          <rect class="cls-310" x="2334.4" y="1494.8" width="1.4" height="123.1"/>
          <rect class="cls-131" x="2335.8" y="1494.8" width="1.4" height="123.1"/>
          <rect class="cls-323" x="2337.2" y="1494.8" width="1.4" height="123.1"/>
          <rect class="cls-268" x="2338.7" y="1494.8" width="1.4" height="123.1"/>
          <rect class="cls-86" x="2340.1" y="1494.8" width="1.4" height="123.1"/>
          <rect class="cls-219" x="2341.5" y="1494.8" width="1.4" height="123.1"/>
          <rect class="cls-208" x="2343" y="1494.8" width="1.4" height="123.1"/>
          <rect class="cls-230" x="2344.4" y="1494.8" width="1.4" height="123.1"/>
          <rect class="cls-263" x="2345.8" y="1494.8" width="1.4" height="123.1"/>
          <rect class="cls-138" x="2347.2" y="1494.8" width="1.4" height="123.1"/>
          <rect class="cls-171" x="2348.7" y="1494.8" width="1.4" height="123.1"/>
          <rect class="cls-14" x="2350.1" y="1494.8" width="1.4" height="123.1"/>
          <rect class="cls-106" x="2351.5" y="1494.8" width="1.4" height="123.1"/>
          <rect class="cls-26" x="2353" y="1494.8" width="1.4" height="123.1"/>
          <rect class="cls-331" x="2354.4" y="1494.8" width="1.4" height="123.1"/>
          <rect class="cls-98" x="2355.8" y="1494.8" width="1.4" height="123.1"/>
          <rect class="cls-117" x="2357.3" y="1494.8" width="1.4" height="123.1"/>
          <rect class="cls-259" x="2358.7" y="1494.8" width="1.4" height="123.1"/>
          <rect class="cls-277" x="2360.1" y="1494.8" width="1.4" height="123.1"/>
          <rect class="cls-192" x="2361.5" y="1494.8" width="1.4" height="123.1"/>
          <rect class="cls-260" x="2363" y="1494.8" width="1.4" height="123.1"/>
          <rect class="cls-169" x="2364.4" y="1494.8" width="1.4" height="123.1"/>
          <rect class="cls-205" x="2365.8" y="1494.8" width="1.4" height="123.1"/>
          <rect class="cls-328" x="2367.3" y="1494.8" width="1.4" height="123.1"/>
          <rect class="cls-9" x="2368.7" y="1494.8" width="1.4" height="123.1"/>
          <rect class="cls-54" x="2370.1" y="1494.8" width="1.4" height="123.1"/>
          <rect class="cls-73" x="2371.6" y="1494.8" width="1.4" height="123.1"/>
          <rect class="cls-295" x="2373" y="1494.8" width="1.4" height="123.1"/>
          <rect class="cls-337" x="2374.4" y="1494.8" width="1.4" height="123.1"/>
          <rect class="cls-47" x="2375.8" y="1494.8" width="1.4" height="123.1"/>
          <rect class="cls-45" x="2377.3" y="1494.8" width="1.4" height="123.1"/>
          <rect class="cls-360" x="2378.7" y="1494.8" width="1.4" height="123.1"/>
          <rect class="cls-216" x="2380.1" y="1494.8" width="1.4" height="123.1"/>
          <rect class="cls-202" x="2381.6" y="1494.8" width="1.4" height="123.1"/>
          <rect class="cls-336" x="2383" y="1494.8" width="1.4" height="123.1"/>
          <rect class="cls-358" x="2384.4" y="1494.8" width="1.4" height="123.1"/>
          <rect class="cls-32" x="2385.8" y="1494.8" width="1.4" height="123.1"/>
          <rect class="cls-109" x="2387.3" y="1494.8" width="1.4" height="123.1"/>
          <rect class="cls-133" x="2388.7" y="1494.8" width="1.4" height="123.1"/>
          <rect class="cls-355" x="2390.1" y="1494.8" width="1.4" height="123.1"/>
          <rect class="cls-290" x="2391.6" y="1494.8" width="1.4" height="123.1"/>
          <rect class="cls-129" x="2393" y="1494.8" width="1.4" height="123.1"/>
          <rect class="cls-333" x="2394.4" y="1494.8" width="1.4" height="123.1"/>
          <rect class="cls-195" x="2395.9" y="1494.8" width="1.4" height="123.1"/>
          <rect class="cls-350" x="2397.3" y="1494.8" width="1.4" height="123.1"/>
          <rect class="cls-42" x="2398.7" y="1494.8" width="1.4" height="123.1"/>
          <rect class="cls-225" x="2400.1" y="1494.8" width="1.4" height="123.1"/>
          <rect class="cls-215" x="2401.6" y="1494.8" width="1.4" height="123.1"/>
          <rect class="cls-298" x="2403" y="1494.8" width="1.4" height="123.1"/>
          <rect class="cls-211" x="2404.4" y="1494.8" width="1.4" height="123.1"/>
          <rect class="cls-146" x="2405.9" y="1494.8" width="1.4" height="123.1"/>
          <rect class="cls-150" x="2407.3" y="1494.8" width="1.4" height="123.1"/>
          <path class="cls-150" d="M2408.7,1617.9v-123.1,123.1Z"/>
        </g>
      </g>
    </g>
  </g>
</svg>