<?xml version="1.0" encoding="UTF-8"?>
<svg id="Capa_1" data-name="Capa 1" xmlns="http://www.w3.org/2000/svg" version="1.1" xmlns:xlink="http://www.w3.org/1999/xlink" viewBox="0 0 365 90">
  <defs>
    <style>
      .cls-1 {
        fill: #aa699e;
      }

      .cls-1, .cls-2, .cls-3, .cls-4, .cls-5, .cls-6, .cls-7, .cls-8, .cls-9, .cls-10, .cls-11, .cls-12, .cls-13, .cls-14, .cls-15, .cls-16, .cls-17, .cls-18, .cls-19, .cls-20, .cls-21, .cls-22, .cls-23, .cls-24, .cls-25, .cls-26, .cls-27, .cls-28, .cls-29, .cls-30, .cls-31, .cls-32, .cls-33, .cls-34, .cls-35, .cls-36, .cls-37, .cls-38, .cls-39, .cls-40, .cls-41, .cls-42, .cls-43, .cls-44, .cls-45, .cls-46, .cls-47, .cls-48, .cls-49, .cls-50, .cls-51, .cls-52, .cls-53, .cls-54, .cls-55, .cls-56, .cls-57, .cls-58, .cls-59, .cls-60, .cls-61, .cls-62, .cls-63, .cls-64, .cls-65, .cls-66, .cls-67, .cls-68, .cls-69, .cls-70, .cls-71, .cls-72, .cls-73, .cls-74, .cls-75, .cls-76, .cls-77, .cls-78, .cls-79, .cls-80, .cls-81, .cls-82, .cls-83, .cls-84, .cls-85, .cls-86, .cls-87, .cls-88, .cls-89, .cls-90, .cls-91, .cls-92, .cls-93, .cls-94, .cls-95, .cls-96, .cls-97, .cls-98, .cls-99, .cls-100, .cls-101, .cls-102, .cls-103, .cls-104, .cls-105, .cls-106, .cls-107, .cls-108, .cls-109, .cls-110, .cls-111, .cls-112, .cls-113, .cls-114, .cls-115, .cls-116, .cls-117, .cls-118, .cls-119, .cls-120, .cls-121, .cls-122, .cls-123, .cls-124, .cls-125, .cls-126, .cls-127, .cls-128, .cls-129, .cls-130, .cls-131, .cls-132, .cls-133, .cls-134, .cls-135, .cls-136, .cls-137, .cls-138, .cls-139, .cls-140, .cls-141, .cls-142, .cls-143, .cls-144, .cls-145, .cls-146, .cls-147, .cls-148, .cls-149, .cls-150, .cls-151, .cls-152, .cls-153, .cls-154, .cls-155, .cls-156, .cls-157, .cls-158, .cls-159, .cls-160, .cls-161, .cls-162, .cls-163, .cls-164, .cls-165, .cls-166, .cls-167, .cls-168, .cls-169, .cls-170, .cls-171, .cls-172, .cls-173, .cls-174, .cls-175, .cls-176, .cls-177, .cls-178, .cls-179, .cls-180, .cls-181, .cls-182, .cls-183, .cls-184, .cls-185, .cls-186, .cls-187, .cls-188, .cls-189, .cls-190, .cls-191, .cls-192, .cls-193, .cls-194, .cls-195, .cls-196, .cls-197, .cls-198, .cls-199, .cls-200, .cls-201, .cls-202, .cls-203, .cls-204, .cls-205, .cls-206, .cls-207, .cls-208, .cls-209, .cls-210, .cls-211, .cls-212, .cls-213, .cls-214, .cls-215, .cls-216, .cls-217, .cls-218, .cls-219, .cls-220, .cls-221, .cls-222, .cls-223, .cls-224, .cls-225, .cls-226, .cls-227, .cls-228, .cls-229, .cls-230, .cls-231, .cls-232, .cls-233, .cls-234, .cls-235, .cls-236, .cls-237, .cls-238, .cls-239, .cls-240, .cls-241, .cls-242, .cls-243, .cls-244, .cls-245, .cls-246, .cls-247, .cls-248, .cls-249, .cls-250, .cls-251, .cls-252, .cls-253, .cls-254, .cls-255, .cls-256, .cls-257, .cls-258, .cls-259, .cls-260, .cls-261, .cls-262, .cls-263, .cls-264, .cls-265, .cls-266, .cls-267, .cls-268, .cls-269, .cls-270, .cls-271, .cls-272, .cls-273, .cls-274, .cls-275, .cls-276, .cls-277, .cls-278, .cls-279, .cls-280, .cls-281, .cls-282, .cls-283, .cls-284, .cls-285, .cls-286, .cls-287, .cls-288, .cls-289, .cls-290, .cls-291, .cls-292, .cls-293, .cls-294, .cls-295, .cls-296, .cls-297, .cls-298, .cls-299, .cls-300, .cls-301, .cls-302, .cls-303, .cls-304, .cls-305, .cls-306, .cls-307, .cls-308, .cls-309, .cls-310, .cls-311, .cls-312, .cls-313, .cls-314, .cls-315, .cls-316, .cls-317, .cls-318, .cls-319, .cls-320, .cls-321, .cls-322, .cls-323, .cls-324, .cls-325, .cls-326, .cls-327, .cls-328, .cls-329, .cls-330, .cls-331, .cls-332, .cls-333, .cls-334, .cls-335, .cls-336, .cls-337, .cls-338, .cls-339, .cls-340, .cls-341, .cls-342, .cls-343, .cls-344, .cls-345, .cls-346, .cls-347, .cls-348, .cls-349, .cls-350, .cls-351, .cls-352, .cls-353, .cls-354, .cls-355, .cls-356, .cls-357, .cls-358, .cls-359, .cls-360, .cls-361, .cls-362, .cls-363 {
        stroke-width: 0px;
      }

      .cls-2 {
        fill: #ba5f85;
      }

      .cls-3 {
        fill: #6b6d9f;
      }

      .cls-4 {
        fill: #22656f;
      }

      .cls-5 {
        fill: #2d6858;
      }

      .cls-6 {
        fill: #9e6ca4;
      }

      .cls-7 {
        fill: #b75e7e;
      }

      .cls-8 {
        fill: #30658d;
      }

      .cls-9 {
        fill: #2c648c;
      }

      .cls-10 {
        fill: #a3564f;
      }

      .cls-11 {
        fill: #2b648b;
      }

      .cls-12 {
        fill: #216288;
      }

      .cls-13 {
        fill: #a9699f;
      }

      .cls-14 {
        fill: #636c9d;
      }

      .cls-15 {
        fill: #aa595f;
      }

      .cls-16 {
        fill: #896fa4;
      }

      .cls-17 {
        fill: #2a638b;
      }

      .cls-18 {
        fill: #854b2d;
      }

      .cls-19 {
        fill: #ad5a66;
      }

      .cls-20 {
        fill: #246667;
      }

      .cls-21 {
        fill: #2f6954;
      }

      .cls-22 {
        fill: #9c5344;
      }

      .cls-23 {
        fill: #326950;
      }

      .cls-24 {
        fill: #5c6c9b;
      }

      .cls-25 {
        fill: #a45650;
      }

      .cls-26 {
        fill: #ac689c;
      }

      .cls-27 {
        fill: #3f6b3d;
      }

      .cls-28 {
        fill: #9d5345;
      }

      .cls-29 {
        fill: #a16ca4;
      }

      .cls-30 {
        fill: #5e6c9c;
      }

      .cls-31 {
        fill: #b25c72;
      }

      .cls-32 {
        fill: #b15b70;
      }

      .cls-33 {
        fill: #456895;
      }

      .cls-34 {
        fill: #526a99;
      }

      .cls-35 {
        fill: #ac679b;
      }

      .cls-36 {
        fill: #476d31;
      }

      .cls-37 {
        fill: #626c9d;
      }

      .cls-38 {
        fill: #206379;
      }

      .cls-39 {
        fill: #8270a4;
      }

      .cls-40 {
        fill: #b65d7d;
      }

      .cls-41 {
        fill: #000;
      }

      .cls-42 {
        fill: #2e648c;
      }

      .cls-43 {
        fill: #4d6a98;
      }

      .cls-44 {
        fill: #936ea4;
      }

      .cls-45 {
        fill: #3a6691;
      }

      .cls-46 {
        fill: #31658e;
      }

      .cls-47 {
        fill: #a3564e;
      }

      .cls-48 {
        fill: #29638b;
      }

      .cls-49 {
        fill: #b95e83;
      }

      .cls-50 {
        fill: #b55d79;
      }

      .cls-51 {
        fill: #36668f;
      }

      .cls-52 {
        fill: #2d648c;
      }

      .cls-53 {
        fill: #76451e;
      }

      .cls-54 {
        fill: #216475;
      }

      .cls-55 {
        fill: #1d6184;
      }

      .cls-56 {
        fill: #824a2a;
      }

      .cls-57 {
        fill: #b06594;
      }

      .cls-58 {
        fill: #6c6d9f;
      }

      .cls-59 {
        fill: #206378;
      }

      .cls-60 {
        fill: #216473;
      }

      .cls-61 {
        fill: #aa585e;
      }

      .cls-62 {
        fill: #1e6281;
      }

      .cls-63 {
        fill: #b7618b;
      }

      .cls-64 {
        fill: #b05b6f;
      }

      .cls-65 {
        fill: #8c6fa4;
      }

      .cls-66 {
        fill: #956da4;
      }

      .cls-67 {
        fill: #a8585b;
      }

      .cls-68 {
        fill: #a75758;
      }

      .cls-69 {
        fill: #9a6da4;
      }

      .cls-70 {
        fill: #926ea4;
      }

      .cls-71 {
        fill: #ae5a69;
      }

      .cls-72 {
        fill: #236288;
      }

      .cls-73 {
        fill: #586b9a;
      }

      .cls-74 {
        fill: #8f4e37;
      }

      .cls-75 {
        fill: #2b685a;
      }

      .cls-76 {
        fill: #8e6ea4;
      }

      .cls-77 {
        fill: #3a6b44;
      }

      .cls-78 {
        fill: #a65756;
      }

      .cls-79 {
        fill: #1f637d;
      }

      .cls-80 {
        fill: #b85e81;
      }

      .cls-81 {
        fill: #1d6186;
      }

      .cls-82 {
        fill: #914f39;
      }

      .cls-83 {
        fill: #ad5a65;
      }

      .cls-84 {
        fill: #9d6ca4;
      }

      .cls-85 {
        fill: #6d6e9f;
      }

      .cls-86 {
        fill: #b26492;
      }

      .cls-87 {
        fill: #396a46;
      }

      .cls-88 {
        fill: #916ea4;
      }

      .cls-89 {
        fill: #8570a4;
      }

      .cls-90 {
        fill: #a75757;
      }

      .cls-91 {
        fill: #27638a;
      }

      .cls-92 {
        fill: #844a2c;
      }

      .cls-93 {
        fill: #3d6792;
      }

      .cls-94 {
        fill: #b4628e;
      }

      .cls-95 {
        fill: #396a45;
      }

      .cls-96 {
        fill: #226571;
      }

      .cls-97 {
        fill: #2f648d;
      }

      .cls-98 {
        fill: #7d4825;
      }

      .cls-99 {
        fill: #77461f;
      }

      .cls-100 {
        fill: #446c35;
      }

      .cls-101 {
        fill: #866fa4;
      }

      .cls-102 {
        fill: #476d32;
      }

      .cls-103 {
        fill: #b95f87;
      }

      .cls-104 {
        fill: #74441c;
      }

      .cls-105 {
        fill: #466995;
      }

      .cls-106 {
        fill: #97513f;
      }

      .cls-107 {
        fill: #714319;
      }

      .cls-108 {
        fill: #1f627e;
      }

      .cls-109 {
        fill: #416893;
      }

      .cls-110 {
        fill: #266389;
      }

      .cls-111 {
        fill: #37668f;
      }

      .cls-112 {
        fill: #a86aa1;
      }

      .cls-113 {
        fill: #ba5f86;
      }

      .cls-114 {
        fill: #3c6b41;
      }

      .cls-115 {
        fill: #ae5a6a;
      }

      .cls-116 {
        fill: #2c6859;
      }

      .cls-117 {
        fill: #a9585d;
      }

      .cls-118 {
        fill: #5a6b9b;
      }

      .cls-119 {
        fill: #966da4;
      }

      .cls-120 {
        fill: #316952;
      }

      .cls-121 {
        fill: #9c6ca4;
      }

      .cls-122 {
        fill: #426c38;
      }

      .cls-123 {
        fill: #9e5446;
      }

      .cls-124 {
        fill: #8470a4;
      }

      .cls-125 {
        fill: #a36ba4;
      }

      .cls-126 {
        fill: #95503d;
      }

      .cls-127 {
        fill: #924f3a;
      }

      .cls-128 {
        fill: #4b6997;
      }

      .cls-129 {
        fill: #606c9c;
      }

      .cls-130 {
        fill: #726ea0;
      }

      .cls-131 {
        fill: #a05548;
      }

      .cls-132 {
        fill: none;
      }

      .cls-133 {
        fill: #75451d;
      }

      .cls-134 {
        fill: #7e70a3;
      }

      .cls-135 {
        fill: #8070a4;
      }

      .cls-136 {
        fill: #8d4d35;
      }

      .cls-137 {
        fill: #33658e;
      }

      .cls-138 {
        fill: #4e6a98;
      }

      .cls-139 {
        fill: #306953;
      }

      .cls-140 {
        fill: #996da4;
      }

      .cls-141 {
        fill: #6d4215;
      }

      .cls-142 {
        fill: #7b4723;
      }

      .cls-143 {
        fill: #736ea0;
      }

      .cls-144 {
        fill: #536b99;
      }

      .cls-145 {
        fill: #6e6e9f;
      }

      .cls-146 {
        fill: #8370a4;
      }

      .cls-147 {
        fill: #b85e82;
      }

      .cls-148 {
        fill: #a85859;
      }

      .cls-149 {
        fill: #ac5964;
      }

      .cls-150 {
        fill: #ad679a;
      }

      .cls-151 {
        fill: #396690;
      }

      .cls-152 {
        fill: #476995;
      }

      .cls-153 {
        fill: #b06596;
      }

      .cls-154 {
        fill: #6c4114;
      }

      .cls-155 {
        fill: #3d6b40;
      }

      .cls-156 {
        fill: #a55753;
      }

      .cls-157 {
        fill: #b55d7a;
      }

      .cls-158 {
        fill: #216472;
      }

      .cls-159 {
        fill: #ab5960;
      }

      .cls-160 {
        fill: #366a4a;
      }

      .cls-161 {
        fill: #9b5343;
      }

      .cls-162 {
        fill: #a66ba4;
      }

      .cls-163 {
        fill: #b45c77;
      }

      .cls-164 {
        fill: #2e6956;
      }

      .cls-165 {
        fill: #986da4;
      }

      .cls-166 {
        fill: #8f6ea4;
      }

      .cls-167 {
        fill: #a45651;
      }

      .cls-168 {
        fill: #a76ba3;
      }

      .cls-169 {
        fill: #20637a;
      }

      .cls-170 {
        fill: #a06ca4;
      }

      .cls-171 {
        fill: #b25c73;
      }

      .cls-172 {
        fill: #8b6fa4;
      }

      .cls-173 {
        fill: #b35c76;
      }

      .cls-174 {
        fill: #a65755;
      }

      .cls-175 {
        fill: #746ea1;
      }

      .cls-176 {
        fill: #3e6792;
      }

      .cls-177 {
        fill: #a26ca4;
      }

      .cls-178 {
        fill: #9f5447;
      }

      .cls-179 {
        fill: #a9585c;
      }

      .cls-180 {
        fill: #b15b71;
      }

      .cls-181 {
        fill: #256763;
      }

      .cls-182 {
        fill: #716ea0;
      }

      .cls-183 {
        fill: #266761;
      }

      .cls-184 {
        fill: #976da4;
      }

      .cls-185 {
        fill: #20637b;
      }

      .cls-186 {
        fill: #246669;
      }

      .cls-187 {
        fill: #22656e;
      }

      .cls-188 {
        fill: #b36390;
      }

      .cls-189 {
        fill: #6f4317;
      }

      .cls-190 {
        fill: #486d30;
      }

      .cls-191 {
        fill: #576b9a;
      }

      .cls-192 {
        fill: #b25c74;
      }

      .cls-193 {
        fill: #985240;
      }

      .cls-194 {
        fill: #804928;
      }

      .cls-195 {
        fill: #8170a4;
      }

      .cls-196 {
        fill: #426894;
      }

      .cls-197 {
        fill: #506a98;
      }

      .cls-198 {
        fill: #b75e7f;
      }

      .cls-199 {
        fill: #8a6fa4;
      }

      .cls-200 {
        fill: #436c37;
      }

      .cls-201 {
        fill: #4c6a97;
      }

      .cls-202 {
        fill: #326951;
      }

      .cls-203 {
        fill: #756ea1;
      }

      .cls-204 {
        fill: #794621;
      }

      .cls-205 {
        fill: #b16493;
      }

      .cls-206 {
        fill: #ac5963;
      }

      .cls-207 {
        fill: #784620;
      }

      .cls-208 {
        fill: #7d6fa3;
      }

      .cls-209 {
        fill: #b05b6e;
      }

      .cls-210 {
        fill: #7b6fa2;
      }

      .cls-211 {
        fill: #23656d;
      }

      .cls-212 {
        fill: #a8585a;
      }

      .cls-213 {
        fill: #b6618c;
      }

      .cls-214 {
        fill: #376a48;
      }

      .cls-215 {
        fill: #256389;
      }

      .cls-216 {
        fill: #1e6282;
      }

      .cls-217 {
        fill: #666d9e;
      }

      .cls-218 {
        fill: #346a4d;
      }

      .cls-219 {
        fill: #96513e;
      }

      .cls-220 {
        fill: #8b4d33;
      }

      .cls-221 {
        fill: #496996;
      }

      .cls-222 {
        fill: #216477;
      }

      .cls-223 {
        fill: #28638a;
      }

      .cls-224 {
        fill: #28675f;
      }

      .cls-225 {
        fill: #a1554a;
      }

      .cls-226 {
        fill: #af5a6b;
      }

      .cls-227 {
        fill: #446c36;
      }

      .cls-228 {
        fill: #616c9c;
      }

      .cls-229 {
        fill: #a2554b;
      }

      .cls-364 {
        clip-path: url(#clippath);
      }

      .cls-230 {
        fill: #246666;
      }

      .cls-231 {
        fill: #b65d7c;
      }

      .cls-232 {
        fill: #a969a0;
      }

      .cls-233 {
        fill: #b86089;
      }

      .cls-234 {
        fill: #23656c;
      }

      .cls-235 {
        fill: #256764;
      }

      .cls-236 {
        fill: #a76aa2;
      }

      .cls-237 {
        fill: #406c3c;
      }

      .cls-238 {
        fill: #3b6b42;
      }

      .cls-239 {
        fill: #7f4927;
      }

      .cls-240 {
        fill: #1d6185;
      }

      .cls-241 {
        fill: #546b99;
      }

      .cls-242 {
        fill: #416c3a;
      }

      .cls-243 {
        fill: #646d9d;
      }

      .cls-244 {
        fill: #566b9a;
      }

      .cls-245 {
        fill: #6b4113;
      }

      .cls-246 {
        fill: #7e4826;
      }

      .cls-247 {
        fill: #386690;
      }

      .cls-248 {
        fill: #3b6691;
      }

      .cls-249 {
        fill: #ad5a67;
      }

      .cls-250 {
        fill: #ab689d;
      }

      .cls-251 {
        fill: #1f637c;
      }

      .cls-252 {
        fill: #6f6ea0;
      }

      .cls-253 {
        fill: #346a4e;
      }

      .cls-254 {
        fill: #23666b;
      }

      .cls-255 {
        fill: #b75e80;
      }

      .cls-256 {
        fill: #456d34;
      }

      .cls-257 {
        fill: #af6697;
      }

      .cls-258 {
        fill: #7a6fa2;
      }

      .cls-259 {
        fill: #796fa2;
      }

      .cls-260 {
        fill: #834a2b;
      }

      .cls-261 {
        fill: #2d6857;
      }

      .cls-262 {
        fill: #ae6699;
      }

      .cls-263 {
        fill: #b5628d;
      }

      .cls-264 {
        fill: #34658f;
      }

      .cls-265 {
        fill: #5f6c9c;
      }

      .cls-266 {
        fill: #226570;
      }

      .cls-267 {
        fill: #5b6c9b;
      }

      .cls-268 {
        fill: #706ea0;
      }

      .cls-269 {
        fill: #28685e;
      }

      .cls-270 {
        fill: #7a4722;
      }

      .cls-271 {
        fill: #876fa4;
      }

      .cls-272 {
        fill: #8c4d34;
      }

      .cls-273 {
        fill: #8e4e36;
      }

      .cls-274 {
        fill: #486996;
      }

      .cls-275 {
        fill: #7c4724;
      }

      .cls-276 {
        fill: #656d9d;
      }

      .cls-277 {
        fill: #766fa1;
      }

      .cls-278 {
        fill: #b4638f;
      }

      .cls-279 {
        fill: #266762;
      }

      .cls-280 {
        fill: #4a6997;
      }

      .cls-281 {
        fill: #a2554c;
      }

      .cls-282 {
        fill: #3b6b43;
      }

      .cls-283 {
        fill: #904f38;
      }

      .cls-284 {
        fill: #73441b;
      }

      .cls-285 {
        fill: #246289;
      }

      .cls-286 {
        fill: #ab5961;
      }

      .cls-287 {
        fill: #93503b;
      }

      .cls-288 {
        fill: #874b2f;
      }

      .cls-289 {
        fill: #6a6d9e;
      }

      .cls-290 {
        fill: #256765;
      }

      .cls-291 {
        fill: #466d33;
      }

      .cls-292 {
        fill: #72441a;
      }

      .cls-293 {
        fill: #406793;
      }

      .cls-294 {
        fill: #af5b6c;
      }

      .cls-295 {
        fill: #596b9b;
      }

      .cls-296 {
        fill: #32658e;
      }

      .cls-297 {
        fill: #3e6b3e;
      }

      .cls-298 {
        fill: #216476;
      }

      .cls-299 {
        fill: #9a5242;
      }

      .cls-300 {
        fill: #29685d;
      }

      .cls-301 {
        fill: #1f627f;
      }

      .cls-302 {
        fill: #995241;
      }

      .cls-303 {
        fill: #2f6955;
      }

      .cls-304 {
        fill: #2b685b;
      }

      .cls-305 {
        fill: #696d9e;
      }

      .cls-306 {
        fill: #a56ba4;
      }

      .cls-307 {
        fill: #b7618a;
      }

      .cls-308 {
        fill: #356a4c;
      }

      .cls-309 {
        fill: #b05b6d;
      }

      .cls-310 {
        fill: #b26491;
      }

      .cls-311 {
        fill: #ab5962;
      }

      .cls-312 {
        fill: #3d6b3f;
      }

      .cls-313 {
        fill: #3f6792;
      }

      .cls-314 {
        fill: #8d6ea4;
      }

      .cls-315 {
        fill: #556b9a;
      }

      .cls-316 {
        fill: #3c6791;
      }

      .cls-317 {
        fill: #226288;
      }

      .cls-318 {
        fill: #7f70a3;
      }

      .cls-319 {
        fill: #9f6ca4;
      }

      .cls-320 {
        fill: #426c39;
      }

      .cls-321 {
        fill: #5d6c9c;
      }

      .cls-322 {
        fill: #b96088;
      }

      .cls-323 {
        fill: #814929;
      }

      .cls-324 {
        fill: #8a4c32;
      }

      .cls-325 {
        fill: #b45d78;
      }

      .cls-326 {
        fill: #a15549;
      }

      .cls-327 {
        fill: #1f6187;
      }

      .cls-328 {
        fill: #906ea4;
      }

      .cls-329 {
        fill: #2a685c;
      }

      .cls-330 {
        fill: #884c30;
      }

      .cls-331 {
        fill: #1e6283;
      }

      .cls-332 {
        fill: #1e6186;
      }

      .cls-333 {
        fill: #94503c;
      }

      .cls-334 {
        fill: #23666a;
      }

      .cls-335 {
        fill: #246668;
      }

      .cls-336 {
        fill: #a3564d;
      }

      .cls-337 {
        fill: #704318;
      }

      .cls-338 {
        fill: #ae6698;
      }

      .cls-339 {
        fill: #6e4216;
      }

      .cls-340 {
        fill: #a55652;
      }

      .cls-341 {
        fill: #33694f;
      }

      .cls-342 {
        fill: #894c31;
      }

      .cls-343 {
        fill: #886fa4;
      }

      .cls-344 {
        fill: #516a99;
      }

      .cls-345 {
        fill: #276760;
      }

      .cls-346 {
        fill: #a65754;
      }

      .cls-347 {
        fill: #b95f84;
      }

      .cls-348 {
        fill: #406c3b;
      }

      .cls-349 {
        fill: #206287;
      }

      .cls-350 {
        fill: #7c6fa3;
      }

      .cls-351 {
        fill: #b55d7b;
      }

      .cls-352 {
        fill: #676d9e;
      }

      .cls-353 {
        fill: #b35c75;
      }

      .cls-354 {
        fill: #a46ba4;
      }

      .cls-355 {
        fill: #366a4b;
      }

      .cls-356 {
        fill: #9b6da4;
      }

      .cls-357 {
        fill: #446894;
      }

      .cls-358 {
        fill: #436894;
      }

      .cls-359 {
        fill: #776fa1;
      }

      .cls-360 {
        fill: #786fa2;
      }

      .cls-361 {
        fill: #1e6280;
      }

      .cls-362 {
        fill: #386a47;
      }

      .cls-363 {
        fill: #4f6a98;
      }
    </style>
    <clipPath id="clippath">
      <rect class="cls-132" x="122.2" y="74.1" width="195.2" height="5.2"/>
    </clipPath>
  </defs>
  <path class="cls-41" d="M119.6,22h-15v44.7c.1,0-12.9,0-12.9,0V22c-.1,0-15.4,0-15.4,0v-11h43.3v11.1Z"/>
  <path class="cls-41" d="M164,52.8c0,2.5-.5,4.7-1.4,6.5-.9,1.8-2.2,3.3-3.8,4.5-1.6,1.2-3.5,2-5.7,2.6s-4.4.8-6.8.8h-24.2V10.9h28.6c1.7,0,3.3.4,4.6,1.3,1.4.8,2.6,1.9,3.5,3.3,1,1.3,1.7,2.9,2.3,4.6.5,1.7.8,3.5.8,5.3,0,2.6-.6,5.2-1.8,7.6-1.2,2.4-2.9,4.2-5.3,5.4,2.8,1,5.1,2.6,6.7,5,1.6,2.4,2.5,5.5,2.5,9.5ZM135.7,24.1v8.6h9.2c.9,0,1.8-.3,2.5-.9.8-.6,1.1-1.7,1.1-3.5s-.3-2.6-1-3.3c-.6-.7-1.4-1-2.3-1h-9.6ZM150.3,49.6c0-1.4-.3-2.5-1-3.5-.6-.9-1.5-1.4-2.5-1.4h-11.2v9.4h10.7c1.1,0,2-.4,2.8-1.2s1.1-1.9,1.1-3.4Z"/>
  <path class="cls-41" d="M182.6,10.8h14.6l20.1,55.7h-16.2l-3.5-10.9h-15.5l-3.4,10.9h-16.3l20.2-55.7ZM195.1,45.4l-5.2-17.3-5.4,17.3h10.5Z"/>
  <path class="cls-41" d="M232.9,39.1v27.2h-13.5V10.9h10.5l19.7,28.2V10.9h13.5v55.4h-10.7l-19.5-27.2Z"/>
  <path class="cls-41" d="M266.9,66.6V10.6h15.2v21.3l16.8-21.3h17.1l-20.1,25.1,21.5,30.9h-17.4l-13.7-20.6-4.2,4.4v16.2h-15.2Z"/>
  <polygon class="cls-41" points="74 55.2 68.1 55.2 68.1 21.9 73.8 21.9 73.8 10.6 68.1 10.6 53.9 10.6 47.6 10.6 47.6 21.9 53.9 21.9 53.9 55.2 47.9 55.2 47.9 66.5 53.9 66.5 53.9 66.6 68.1 66.6 68.1 66.5 74 66.5 74 55.2"/>
  <g class="cls-364">
    <path class="cls-190" d="M122.2,74.1v5.2-5.2Z"/>
    <rect class="cls-190" x="122.2" y="74.1" width=".4" height="5.2"/>
    <rect class="cls-36" x="122.6" y="74.1" width=".4" height="5.2"/>
    <rect class="cls-102" x="123" y="74.1" width=".4" height="5.2"/>
    <rect class="cls-291" x="123.5" y="74.1" width=".4" height="5.2"/>
    <rect class="cls-256" x="123.9" y="74.1" width=".4" height="5.2"/>
    <rect class="cls-100" x="124.4" y="74.1" width=".4" height="5.2"/>
    <rect class="cls-227" x="124.8" y="74.1" width=".4" height="5.2"/>
    <rect class="cls-200" x="125.2" y="74.1" width=".4" height="5.2"/>
    <rect class="cls-122" x="125.7" y="74.1" width=".4" height="5.2"/>
    <rect class="cls-320" x="126.1" y="74.1" width=".4" height="5.2"/>
    <rect class="cls-242" x="126.6" y="74.1" width=".4" height="5.2"/>
    <rect class="cls-348" x="127" y="74.1" width=".4" height="5.2"/>
    <rect class="cls-237" x="127.4" y="74.1" width=".4" height="5.2"/>
    <rect class="cls-27" x="127.9" y="74.1" width=".4" height="5.2"/>
    <rect class="cls-297" x="128.3" y="74.1" width=".4" height="5.2"/>
    <rect class="cls-312" x="128.8" y="74.1" width=".4" height="5.2"/>
    <rect class="cls-155" x="129.2" y="74.1" width=".4" height="5.2"/>
    <rect class="cls-114" x="129.6" y="74.1" width=".4" height="5.2"/>
    <rect class="cls-238" x="130.1" y="74.1" width=".4" height="5.2"/>
    <rect class="cls-282" x="130.5" y="74.1" width=".4" height="5.2"/>
    <rect class="cls-77" x="131" y="74.1" width=".4" height="5.2"/>
    <rect class="cls-95" x="131.4" y="74.1" width=".4" height="5.2"/>
    <rect class="cls-87" x="131.8" y="74.1" width=".4" height="5.2"/>
    <rect class="cls-362" x="132.3" y="74.1" width=".4" height="5.2"/>
    <rect class="cls-214" x="132.7" y="74.1" width=".4" height="5.2"/>
    <rect class="cls-160" x="133.2" y="74.1" width=".4" height="5.2"/>
    <rect class="cls-355" x="133.6" y="74.1" width=".4" height="5.2"/>
    <rect class="cls-308" x="134" y="74.1" width=".4" height="5.2"/>
    <rect class="cls-218" x="134.5" y="74.1" width=".4" height="5.2"/>
    <rect class="cls-253" x="134.9" y="74.1" width=".4" height="5.2"/>
    <rect class="cls-341" x="135.4" y="74.1" width=".4" height="5.2"/>
    <rect class="cls-23" x="135.8" y="74.1" width=".4" height="5.2"/>
    <rect class="cls-202" x="136.2" y="74.1" width=".4" height="5.2"/>
    <rect class="cls-120" x="136.7" y="74.1" width=".4" height="5.2"/>
    <rect class="cls-139" x="137.1" y="74.1" width=".4" height="5.2"/>
    <rect class="cls-21" x="137.6" y="74.1" width=".4" height="5.2"/>
    <rect class="cls-303" x="138" y="74.1" width=".4" height="5.2"/>
    <rect class="cls-164" x="138.4" y="74.1" width=".4" height="5.2"/>
    <rect class="cls-261" x="138.9" y="74.1" width=".4" height="5.2"/>
    <rect class="cls-5" x="139.3" y="74.1" width=".4" height="5.2"/>
    <rect class="cls-116" x="139.8" y="74.1" width=".4" height="5.2"/>
    <rect class="cls-75" x="140.2" y="74.1" width=".4" height="5.2"/>
    <rect class="cls-304" x="140.6" y="74.1" width=".4" height="5.2"/>
    <rect class="cls-329" x="141.1" y="74.1" width=".4" height="5.2"/>
    <rect class="cls-300" x="141.5" y="74.1" width=".4" height="5.2"/>
    <rect class="cls-269" x="142" y="74.1" width=".4" height="5.2"/>
    <rect class="cls-224" x="142.4" y="74.1" width=".4" height="5.2"/>
    <rect class="cls-345" x="142.8" y="74.1" width=".4" height="5.2"/>
    <rect class="cls-183" x="143.3" y="74.1" width=".4" height="5.2"/>
    <rect class="cls-279" x="143.7" y="74.1" width=".4" height="5.2"/>
    <rect class="cls-181" x="144.2" y="74.1" width=".4" height="5.2"/>
    <rect class="cls-181" x="144.6" y="74.1" width=".7" height="5.2"/>
    <rect class="cls-235" x="145.3" y="74.1" width=".7" height="5.2"/>
    <rect class="cls-290" x="146" y="74.1" width=".7" height="5.2"/>
    <rect class="cls-230" x="146.7" y="74.1" width=".7" height="5.2"/>
    <rect class="cls-20" x="147.4" y="74.1" width=".7" height="5.2"/>
    <rect class="cls-335" x="148.1" y="74.1" width=".7" height="5.2"/>
    <rect class="cls-186" x="148.8" y="74.1" width=".7" height="5.2"/>
    <rect class="cls-334" x="149.4" y="74.1" width=".7" height="5.2"/>
    <rect class="cls-254" x="150.1" y="74.1" width=".7" height="5.2"/>
    <rect class="cls-234" x="150.8" y="74.1" width=".7" height="5.2"/>
    <rect class="cls-211" x="151.5" y="74.1" width=".7" height="5.2"/>
    <rect class="cls-187" x="152.2" y="74.1" width=".7" height="5.2"/>
    <rect class="cls-4" x="152.9" y="74.1" width=".7" height="5.2"/>
    <rect class="cls-266" x="153.6" y="74.1" width=".7" height="5.2"/>
    <rect class="cls-96" x="154.3" y="74.1" width=".7" height="5.2"/>
    <rect class="cls-158" x="155" y="74.1" width=".7" height="5.2"/>
    <rect class="cls-60" x="155.7" y="74.1" width=".7" height="5.2"/>
    <rect class="cls-54" x="156.4" y="74.1" width=".7" height="5.2"/>
    <rect class="cls-298" x="157.1" y="74.1" width=".7" height="5.2"/>
    <rect class="cls-222" x="157.8" y="74.1" width=".7" height="5.2"/>
    <rect class="cls-59" x="158.5" y="74.1" width=".7" height="5.2"/>
    <rect class="cls-38" x="159.2" y="74.1" width=".7" height="5.2"/>
    <rect class="cls-169" x="159.9" y="74.1" width=".7" height="5.2"/>
    <rect class="cls-185" x="160.6" y="74.1" width=".7" height="5.2"/>
    <rect class="cls-251" x="161.2" y="74.1" width=".7" height="5.2"/>
    <rect class="cls-79" x="161.9" y="74.1" width=".7" height="5.2"/>
    <rect class="cls-108" x="162.6" y="74.1" width=".7" height="5.2"/>
    <rect class="cls-301" x="163.3" y="74.1" width=".7" height="5.2"/>
    <rect class="cls-361" x="164" y="74.1" width=".7" height="5.2"/>
    <rect class="cls-62" x="164.7" y="74.1" width=".7" height="5.2"/>
    <rect class="cls-216" x="165.4" y="74.1" width=".7" height="5.2"/>
    <rect class="cls-331" x="166.1" y="74.1" width=".7" height="5.2"/>
    <rect class="cls-55" x="166.8" y="74.1" width=".7" height="5.2"/>
    <rect class="cls-240" x="167.5" y="74.1" width=".7" height="5.2"/>
    <rect class="cls-81" x="168.2" y="74.1" width=".7" height="5.2"/>
    <rect class="cls-81" x="168.9" y="74.1" width=".5" height="5.2"/>
    <rect class="cls-332" x="169.4" y="74.1" width=".5" height="5.2"/>
    <rect class="cls-327" x="169.8" y="74.1" width=".5" height="5.2"/>
    <rect class="cls-349" x="170.3" y="74.1" width=".5" height="5.2"/>
    <rect class="cls-12" x="170.8" y="74.1" width=".5" height="5.2"/>
    <rect class="cls-317" x="171.3" y="74.1" width=".5" height="5.2"/>
    <rect class="cls-72" x="171.8" y="74.1" width=".5" height="5.2"/>
    <rect class="cls-285" x="172.3" y="74.1" width=".5" height="5.2"/>
    <rect class="cls-215" x="172.7" y="74.1" width=".5" height="5.2"/>
    <rect class="cls-110" x="173.2" y="74.1" width=".5" height="5.2"/>
    <rect class="cls-91" x="173.7" y="74.1" width=".5" height="5.2"/>
    <rect class="cls-223" x="174.2" y="74.1" width=".5" height="5.2"/>
    <rect class="cls-48" x="174.7" y="74.1" width=".5" height="5.2"/>
    <rect class="cls-17" x="175.1" y="74.1" width=".5" height="5.2"/>
    <rect class="cls-11" x="175.6" y="74.1" width=".5" height="5.2"/>
    <rect class="cls-9" x="176.1" y="74.1" width=".5" height="5.2"/>
    <rect class="cls-52" x="176.6" y="74.1" width=".5" height="5.2"/>
    <rect class="cls-42" x="177.1" y="74.1" width=".5" height="5.2"/>
    <rect class="cls-97" x="177.6" y="74.1" width=".5" height="5.2"/>
    <rect class="cls-8" x="178" y="74.1" width=".5" height="5.2"/>
    <rect class="cls-46" x="178.5" y="74.1" width=".5" height="5.2"/>
    <rect class="cls-296" x="179" y="74.1" width=".5" height="5.2"/>
    <rect class="cls-137" x="179.5" y="74.1" width=".5" height="5.2"/>
    <rect class="cls-264" x="180" y="74.1" width=".5" height="5.2"/>
    <rect class="cls-51" x="180.5" y="74.1" width=".5" height="5.2"/>
    <rect class="cls-111" x="180.9" y="74.1" width=".5" height="5.2"/>
    <rect class="cls-247" x="181.4" y="74.1" width=".5" height="5.2"/>
    <rect class="cls-151" x="181.9" y="74.1" width=".5" height="5.2"/>
    <rect class="cls-45" x="182.4" y="74.1" width=".5" height="5.2"/>
    <rect class="cls-248" x="182.9" y="74.1" width=".5" height="5.2"/>
    <rect class="cls-316" x="183.3" y="74.1" width=".5" height="5.2"/>
    <rect class="cls-93" x="183.8" y="74.1" width=".5" height="5.2"/>
    <rect class="cls-176" x="184.3" y="74.1" width=".5" height="5.2"/>
    <rect class="cls-313" x="184.8" y="74.1" width=".5" height="5.2"/>
    <rect class="cls-293" x="185.3" y="74.1" width=".5" height="5.2"/>
    <rect class="cls-109" x="185.8" y="74.1" width=".5" height="5.2"/>
    <rect class="cls-196" x="186.2" y="74.1" width=".5" height="5.2"/>
    <rect class="cls-358" x="186.7" y="74.1" width=".5" height="5.2"/>
    <rect class="cls-357" x="187.2" y="74.1" width=".5" height="5.2"/>
    <rect class="cls-33" x="187.7" y="74.1" width=".5" height="5.2"/>
    <rect class="cls-105" x="188.2" y="74.1" width=".5" height="5.2"/>
    <rect class="cls-152" x="188.6" y="74.1" width=".5" height="5.2"/>
    <rect class="cls-274" x="189.1" y="74.1" width=".5" height="5.2"/>
    <rect class="cls-221" x="189.6" y="74.1" width=".5" height="5.2"/>
    <rect class="cls-280" x="190.1" y="74.1" width=".5" height="5.2"/>
    <rect class="cls-128" x="190.6" y="74.1" width=".5" height="5.2"/>
    <rect class="cls-201" x="191.1" y="74.1" width=".5" height="5.2"/>
    <rect class="cls-43" x="191.5" y="74.1" width=".5" height="5.2"/>
    <rect class="cls-138" x="192" y="74.1" width=".5" height="5.2"/>
    <rect class="cls-138" x="192.5" y="74.1" width=".5" height="5.2"/>
    <rect class="cls-363" x="193" y="74.1" width=".5" height="5.2"/>
    <rect class="cls-197" x="193.6" y="74.1" width=".5" height="5.2"/>
    <rect class="cls-344" x="194.1" y="74.1" width=".5" height="5.2"/>
    <rect class="cls-34" x="194.6" y="74.1" width=".5" height="5.2"/>
    <rect class="cls-144" x="195.1" y="74.1" width=".5" height="5.2"/>
    <rect class="cls-241" x="195.6" y="74.1" width=".5" height="5.2"/>
    <rect class="cls-315" x="196.2" y="74.1" width=".5" height="5.2"/>
    <rect class="cls-244" x="196.7" y="74.1" width=".5" height="5.2"/>
    <rect class="cls-191" x="197.2" y="74.1" width=".5" height="5.2"/>
    <rect class="cls-73" x="197.7" y="74.1" width=".5" height="5.2"/>
    <rect class="cls-295" x="198.3" y="74.1" width=".5" height="5.2"/>
    <rect class="cls-118" x="198.8" y="74.1" width=".5" height="5.2"/>
    <rect class="cls-267" x="199.3" y="74.1" width=".5" height="5.2"/>
    <rect class="cls-24" x="199.8" y="74.1" width=".5" height="5.2"/>
    <rect class="cls-321" x="200.4" y="74.1" width=".5" height="5.2"/>
    <rect class="cls-30" x="200.9" y="74.1" width=".5" height="5.2"/>
    <rect class="cls-265" x="201.4" y="74.1" width=".5" height="5.2"/>
    <rect class="cls-129" x="201.9" y="74.1" width=".5" height="5.2"/>
    <rect class="cls-228" x="202.5" y="74.1" width=".5" height="5.2"/>
    <rect class="cls-37" x="203" y="74.1" width=".5" height="5.2"/>
    <rect class="cls-14" x="203.5" y="74.1" width=".5" height="5.2"/>
    <rect class="cls-243" x="204" y="74.1" width=".5" height="5.2"/>
    <rect class="cls-276" x="204.6" y="74.1" width=".5" height="5.2"/>
    <rect class="cls-217" x="205.1" y="74.1" width=".5" height="5.2"/>
    <rect class="cls-352" x="205.6" y="74.1" width=".5" height="5.2"/>
    <rect class="cls-305" x="206.1" y="74.1" width=".5" height="5.2"/>
    <rect class="cls-289" x="206.7" y="74.1" width=".5" height="5.2"/>
    <rect class="cls-3" x="207.2" y="74.1" width=".5" height="5.2"/>
    <rect class="cls-58" x="207.7" y="74.1" width=".5" height="5.2"/>
    <rect class="cls-85" x="208.2" y="74.1" width=".5" height="5.2"/>
    <rect class="cls-145" x="208.8" y="74.1" width=".5" height="5.2"/>
    <rect class="cls-252" x="209.3" y="74.1" width=".5" height="5.2"/>
    <rect class="cls-268" x="209.8" y="74.1" width=".5" height="5.2"/>
    <rect class="cls-182" x="210.3" y="74.1" width=".5" height="5.2"/>
    <rect class="cls-130" x="210.9" y="74.1" width=".5" height="5.2"/>
    <rect class="cls-143" x="211.4" y="74.1" width=".5" height="5.2"/>
    <rect class="cls-175" x="211.9" y="74.1" width=".5" height="5.2"/>
    <rect class="cls-203" x="212.4" y="74.1" width=".5" height="5.2"/>
    <rect class="cls-277" x="213" y="74.1" width=".5" height="5.2"/>
    <rect class="cls-359" x="213.5" y="74.1" width=".5" height="5.2"/>
    <rect class="cls-360" x="214" y="74.1" width=".5" height="5.2"/>
    <rect class="cls-259" x="214.5" y="74.1" width=".5" height="5.2"/>
    <rect class="cls-258" x="215" y="74.1" width=".5" height="5.2"/>
    <rect class="cls-210" x="215.6" y="74.1" width=".5" height="5.2"/>
    <rect class="cls-350" x="216.1" y="74.1" width=".5" height="5.2"/>
    <rect class="cls-208" x="216.6" y="74.1" width=".5" height="5.2"/>
    <rect class="cls-134" x="217.1" y="74.1" width=".5" height="5.2"/>
    <rect class="cls-318" x="217.7" y="74.1" width=".5" height="5.2"/>
    <rect class="cls-135" x="218.2" y="74.1" width=".5" height="5.2"/>
    <rect class="cls-195" x="218.7" y="74.1" width=".5" height="5.2"/>
    <rect class="cls-39" x="219.2" y="74.1" width=".5" height="5.2"/>
    <rect class="cls-39" x="219.8" y="74.1" width=".8" height="5.2"/>
    <rect class="cls-146" x="220.6" y="74.1" width=".8" height="5.2"/>
    <rect class="cls-124" x="221.4" y="74.1" width=".8" height="5.2"/>
    <rect class="cls-89" x="222.2" y="74.1" width=".8" height="5.2"/>
    <rect class="cls-101" x="223" y="74.1" width=".8" height="5.2"/>
    <rect class="cls-271" x="223.9" y="74.1" width=".8" height="5.2"/>
    <rect class="cls-343" x="224.7" y="74.1" width=".8" height="5.2"/>
    <rect class="cls-16" x="225.5" y="74.1" width=".8" height="5.2"/>
    <rect class="cls-199" x="226.3" y="74.1" width=".8" height="5.2"/>
    <rect class="cls-172" x="227.1" y="74.1" width=".8" height="5.2"/>
    <rect class="cls-65" x="227.9" y="74.1" width=".8" height="5.2"/>
    <rect class="cls-314" x="228.8" y="74.1" width=".8" height="5.2"/>
    <rect class="cls-76" x="229.6" y="74.1" width=".8" height="5.2"/>
    <rect class="cls-166" x="230.4" y="74.1" width=".8" height="5.2"/>
    <rect class="cls-328" x="231.2" y="74.1" width=".8" height="5.2"/>
    <rect class="cls-88" x="232" y="74.1" width=".8" height="5.2"/>
    <rect class="cls-70" x="232.9" y="74.1" width=".8" height="5.2"/>
    <rect class="cls-44" x="233.7" y="74.1" width=".8" height="5.2"/>
    <rect class="cls-66" x="234.5" y="74.1" width=".8" height="5.2"/>
    <rect class="cls-119" x="235.3" y="74.1" width=".8" height="5.2"/>
    <rect class="cls-184" x="236.1" y="74.1" width=".8" height="5.2"/>
    <rect class="cls-165" x="236.9" y="74.1" width=".8" height="5.2"/>
    <rect class="cls-140" x="237.8" y="74.1" width=".8" height="5.2"/>
    <rect class="cls-69" x="238.6" y="74.1" width=".8" height="5.2"/>
    <rect class="cls-356" x="239.4" y="74.1" width=".8" height="5.2"/>
    <rect class="cls-121" x="240.2" y="74.1" width=".8" height="5.2"/>
    <rect class="cls-84" x="241" y="74.1" width=".8" height="5.2"/>
    <rect class="cls-6" x="241.9" y="74.1" width=".8" height="5.2"/>
    <rect class="cls-319" x="242.7" y="74.1" width=".8" height="5.2"/>
    <rect class="cls-170" x="243.5" y="74.1" width=".8" height="5.2"/>
    <rect class="cls-29" x="244.3" y="74.1" width=".8" height="5.2"/>
    <rect class="cls-177" x="245.1" y="74.1" width=".8" height="5.2"/>
    <rect class="cls-125" x="245.9" y="74.1" width=".8" height="5.2"/>
    <rect class="cls-354" x="246.8" y="74.1" width=".8" height="5.2"/>
    <rect class="cls-306" x="247.6" y="74.1" width=".8" height="5.2"/>
    <rect class="cls-162" x="248.4" y="74.1" width=".8" height="5.2"/>
    <rect class="cls-162" x="249.2" y="74.1" width="1" height="5.2"/>
    <rect class="cls-168" x="250.2" y="74.1" width="1" height="5.2"/>
    <rect class="cls-236" x="251.2" y="74.1" width="1" height="5.2"/>
    <rect class="cls-112" x="252.2" y="74.1" width="1" height="5.2"/>
    <rect class="cls-232" x="253.1" y="74.1" width="1" height="5.2"/>
    <rect class="cls-13" x="254.1" y="74.1" width="1" height="5.2"/>
    <rect class="cls-1" x="255.1" y="74.1" width="1" height="5.2"/>
    <rect class="cls-250" x="256.1" y="74.1" width="1" height="5.2"/>
    <rect class="cls-26" x="257.1" y="74.1" width="1" height="5.2"/>
    <rect class="cls-35" x="258.1" y="74.1" width="1" height="5.2"/>
    <rect class="cls-150" x="259" y="74.1" width="1" height="5.2"/>
    <rect class="cls-262" x="260" y="74.1" width="1" height="5.2"/>
    <rect class="cls-338" x="261" y="74.1" width="1" height="5.2"/>
    <rect class="cls-257" x="262" y="74.1" width="1" height="5.2"/>
    <rect class="cls-153" x="263" y="74.1" width="1" height="5.2"/>
    <rect class="cls-57" x="263.9" y="74.1" width="1" height="5.2"/>
    <rect class="cls-205" x="264.9" y="74.1" width="1" height="5.2"/>
    <rect class="cls-86" x="265.9" y="74.1" width="1" height="5.2"/>
    <rect class="cls-310" x="266.9" y="74.1" width="1" height="5.2"/>
    <rect class="cls-188" x="267.9" y="74.1" width="1" height="5.2"/>
    <rect class="cls-278" x="268.8" y="74.1" width="1" height="5.2"/>
    <rect class="cls-94" x="269.8" y="74.1" width="1" height="5.2"/>
    <rect class="cls-263" x="270.8" y="74.1" width="1" height="5.2"/>
    <rect class="cls-213" x="271.8" y="74.1" width="1" height="5.2"/>
    <rect class="cls-63" x="272.8" y="74.1" width="1" height="5.2"/>
    <rect class="cls-307" x="273.8" y="74.1" width="1" height="5.2"/>
    <rect class="cls-233" x="274.7" y="74.1" width="1" height="5.2"/>
    <rect class="cls-322" x="275.7" y="74.1" width="1" height="5.2"/>
    <rect class="cls-103" x="276.7" y="74.1" width="1" height="5.2"/>
    <rect class="cls-113" x="277.7" y="74.1" width="1" height="5.2"/>
    <rect class="cls-113" x="278.7" y="74.1" width=".3" height="5.2"/>
    <rect class="cls-2" x="279" y="74.1" width=".3" height="5.2"/>
    <rect class="cls-347" x="279.3" y="74.1" width=".3" height="5.2"/>
    <rect class="cls-49" x="279.7" y="74.1" width=".3" height="5.2"/>
    <rect class="cls-147" x="280" y="74.1" width=".3" height="5.2"/>
    <rect class="cls-80" x="280.4" y="74.1" width=".3" height="5.2"/>
    <rect class="cls-255" x="280.7" y="74.1" width=".3" height="5.2"/>
    <rect class="cls-198" x="281" y="74.1" width=".3" height="5.2"/>
    <rect class="cls-7" x="281.4" y="74.1" width=".3" height="5.2"/>
    <rect class="cls-40" x="281.7" y="74.1" width=".3" height="5.2"/>
    <rect class="cls-231" x="282.1" y="74.1" width=".3" height="5.2"/>
    <rect class="cls-351" x="282.4" y="74.1" width=".3" height="5.2"/>
    <rect class="cls-157" x="282.7" y="74.1" width=".3" height="5.2"/>
    <rect class="cls-50" x="283.1" y="74.1" width=".3" height="5.2"/>
    <rect class="cls-325" x="283.4" y="74.1" width=".3" height="5.2"/>
    <rect class="cls-163" x="283.8" y="74.1" width=".3" height="5.2"/>
    <rect class="cls-173" x="284.1" y="74.1" width=".3" height="5.2"/>
    <rect class="cls-353" x="284.4" y="74.1" width=".3" height="5.2"/>
    <rect class="cls-192" x="284.8" y="74.1" width=".3" height="5.2"/>
    <rect class="cls-171" x="285.1" y="74.1" width=".3" height="5.2"/>
    <rect class="cls-31" x="285.5" y="74.1" width=".3" height="5.2"/>
    <rect class="cls-180" x="285.8" y="74.1" width=".3" height="5.2"/>
    <rect class="cls-32" x="286.1" y="74.1" width=".3" height="5.2"/>
    <rect class="cls-64" x="286.5" y="74.1" width=".3" height="5.2"/>
    <rect class="cls-209" x="286.8" y="74.1" width=".3" height="5.2"/>
    <rect class="cls-309" x="287.2" y="74.1" width=".3" height="5.2"/>
    <rect class="cls-294" x="287.5" y="74.1" width=".3" height="5.2"/>
    <rect class="cls-226" x="287.8" y="74.1" width=".3" height="5.2"/>
    <rect class="cls-115" x="288.2" y="74.1" width=".3" height="5.2"/>
    <rect class="cls-71" x="288.5" y="74.1" width=".3" height="5.2"/>
    <rect class="cls-249" x="288.9" y="74.1" width=".3" height="5.2"/>
    <rect class="cls-19" x="289.2" y="74.1" width=".3" height="5.2"/>
    <rect class="cls-83" x="289.5" y="74.1" width=".3" height="5.2"/>
    <rect class="cls-149" x="289.9" y="74.1" width=".3" height="5.2"/>
    <rect class="cls-206" x="290.2" y="74.1" width=".3" height="5.2"/>
    <rect class="cls-311" x="290.6" y="74.1" width=".3" height="5.2"/>
    <rect class="cls-286" x="290.9" y="74.1" width=".3" height="5.2"/>
    <rect class="cls-159" x="291.2" y="74.1" width=".3" height="5.2"/>
    <rect class="cls-15" x="291.6" y="74.1" width=".3" height="5.2"/>
    <rect class="cls-61" x="291.9" y="74.1" width=".3" height="5.2"/>
    <rect class="cls-117" x="292.3" y="74.1" width=".3" height="5.2"/>
    <rect class="cls-179" x="292.6" y="74.1" width=".3" height="5.2"/>
    <rect class="cls-67" x="292.9" y="74.1" width=".3" height="5.2"/>
    <rect class="cls-212" x="293.3" y="74.1" width=".3" height="5.2"/>
    <rect class="cls-148" x="293.6" y="74.1" width=".3" height="5.2"/>
    <rect class="cls-68" x="294" y="74.1" width=".3" height="5.2"/>
    <rect class="cls-90" x="294.3" y="74.1" width=".3" height="5.2"/>
    <rect class="cls-78" x="294.6" y="74.1" width=".3" height="5.2"/>
    <rect class="cls-174" x="295" y="74.1" width=".3" height="5.2"/>
    <rect class="cls-346" x="295.3" y="74.1" width=".3" height="5.2"/>
    <rect class="cls-156" x="295.7" y="74.1" width=".3" height="5.2"/>
    <rect class="cls-340" x="296" y="74.1" width=".3" height="5.2"/>
    <rect class="cls-167" x="296.3" y="74.1" width=".3" height="5.2"/>
    <rect class="cls-25" x="296.7" y="74.1" width=".3" height="5.2"/>
    <rect class="cls-10" x="297" y="74.1" width=".3" height="5.2"/>
    <rect class="cls-47" x="297.3" y="74.1" width=".3" height="5.2"/>
    <rect class="cls-336" x="297.7" y="74.1" width=".3" height="5.2"/>
    <rect class="cls-281" x="298" y="74.1" width=".3" height="5.2"/>
    <rect class="cls-229" x="298.4" y="74.1" width=".3" height="5.2"/>
    <rect class="cls-225" x="298.7" y="74.1" width=".3" height="5.2"/>
    <rect class="cls-326" x="299" y="74.1" width=".3" height="5.2"/>
    <rect class="cls-326" x="299.4" y="74.1" width=".3" height="5.2"/>
    <rect class="cls-131" x="299.7" y="74.1" width=".3" height="5.2"/>
    <rect class="cls-178" x="300.1" y="74.1" width=".3" height="5.2"/>
    <rect class="cls-123" x="300.4" y="74.1" width=".3" height="5.2"/>
    <rect class="cls-28" x="300.7" y="74.1" width=".3" height="5.2"/>
    <rect class="cls-22" x="301.1" y="74.1" width=".3" height="5.2"/>
    <rect class="cls-161" x="301.4" y="74.1" width=".3" height="5.2"/>
    <rect class="cls-299" x="301.7" y="74.1" width=".3" height="5.2"/>
    <rect class="cls-302" x="302.1" y="74.1" width=".3" height="5.2"/>
    <rect class="cls-193" x="302.4" y="74.1" width=".3" height="5.2"/>
    <rect class="cls-106" x="302.7" y="74.1" width=".3" height="5.2"/>
    <rect class="cls-219" x="303.1" y="74.1" width=".3" height="5.2"/>
    <rect class="cls-126" x="303.4" y="74.1" width=".3" height="5.2"/>
    <rect class="cls-333" x="303.7" y="74.1" width=".3" height="5.2"/>
    <rect class="cls-287" x="304.1" y="74.1" width=".3" height="5.2"/>
    <rect class="cls-127" x="304.4" y="74.1" width=".3" height="5.2"/>
    <rect class="cls-82" x="304.7" y="74.1" width=".3" height="5.2"/>
    <rect class="cls-283" x="305.1" y="74.1" width=".3" height="5.2"/>
    <rect class="cls-74" x="305.4" y="74.1" width=".3" height="5.2"/>
    <rect class="cls-273" x="305.7" y="74.1" width=".3" height="5.2"/>
    <rect class="cls-136" x="306.1" y="74.1" width=".3" height="5.2"/>
    <rect class="cls-272" x="306.4" y="74.1" width=".3" height="5.2"/>
    <rect class="cls-220" x="306.7" y="74.1" width=".3" height="5.2"/>
    <rect class="cls-324" x="307.1" y="74.1" width=".3" height="5.2"/>
    <rect class="cls-342" x="307.4" y="74.1" width=".3" height="5.2"/>
    <rect class="cls-330" x="307.7" y="74.1" width=".3" height="5.2"/>
    <rect class="cls-288" x="308.1" y="74.1" width=".3" height="5.2"/>
    <rect class="cls-18" x="308.4" y="74.1" width=".3" height="5.2"/>
    <rect class="cls-92" x="308.7" y="74.1" width=".3" height="5.2"/>
    <rect class="cls-260" x="309.1" y="74.1" width=".3" height="5.2"/>
    <rect class="cls-56" x="309.4" y="74.1" width=".3" height="5.2"/>
    <rect class="cls-323" x="309.7" y="74.1" width=".3" height="5.2"/>
    <rect class="cls-194" x="310.1" y="74.1" width=".3" height="5.2"/>
    <rect class="cls-239" x="310.4" y="74.1" width=".3" height="5.2"/>
    <rect class="cls-246" x="310.7" y="74.1" width=".3" height="5.2"/>
    <rect class="cls-98" x="311.1" y="74.1" width=".3" height="5.2"/>
    <rect class="cls-275" x="311.4" y="74.1" width=".3" height="5.2"/>
    <rect class="cls-142" x="311.7" y="74.1" width=".3" height="5.2"/>
    <rect class="cls-270" x="312.1" y="74.1" width=".3" height="5.2"/>
    <rect class="cls-204" x="312.4" y="74.1" width=".3" height="5.2"/>
    <rect class="cls-207" x="312.7" y="74.1" width=".3" height="5.2"/>
    <rect class="cls-99" x="313.1" y="74.1" width=".3" height="5.2"/>
    <rect class="cls-53" x="313.4" y="74.1" width=".3" height="5.2"/>
    <rect class="cls-133" x="313.7" y="74.1" width=".3" height="5.2"/>
    <rect class="cls-104" x="314.1" y="74.1" width=".3" height="5.2"/>
    <rect class="cls-284" x="314.4" y="74.1" width=".3" height="5.2"/>
    <rect class="cls-292" x="314.7" y="74.1" width=".3" height="5.2"/>
    <rect class="cls-107" x="315.1" y="74.1" width=".3" height="5.2"/>
    <rect class="cls-337" x="315.4" y="74.1" width=".3" height="5.2"/>
    <rect class="cls-189" x="315.7" y="74.1" width=".3" height="5.2"/>
    <rect class="cls-339" x="316.1" y="74.1" width=".3" height="5.2"/>
    <rect class="cls-141" x="316.4" y="74.1" width=".3" height="5.2"/>
    <rect class="cls-154" x="316.7" y="74.1" width=".3" height="5.2"/>
    <rect class="cls-245" x="317" y="74.1" width=".3" height="5.2"/>
    <path class="cls-245" d="M317.4,79.4v-5.2,5.2Z"/>
  </g>
</svg>